<svg id="Слой_1" data-name="Слой 1" xmlns="http://www.w3.org/2000/svg" viewBox="0 0 122 122"><title>check_system-01</title><path d="M26.24,34.84a28.26,28.26,0,1,0,40,0,28.26,28.26,0,0,0-40,0M69,77.55A32.14,32.14,0,1,1,69,32.1h0a32.18,32.18,0,0,1,0,45.45" style="fill:#73d1db"/><rect x="69.6" y="74.54" width="3.88" height="11.22" transform="translate(-35.72 74.06) rotate(-45)" style="fill:#73d1db"/><path d="M73.35,89l7.08-7.08,23.49,23.49-7.08,7.08Zm-5.49,0,29,29,12.57-12.57-29-29Z" style="fill:#73d1db"/><path d="M31.74,40.33a20.49,20.49,0,1,0,29,0,20.49,20.49,0,0,0-29,0M63.46,72.06a24.38,24.38,0,1,1,0-34.48h0a24.41,24.41,0,0,1,0,34.47" style="fill:#73d1db"/><rect x="73.45" y="87.04" width="13.89" height="3.88" transform="translate(-39.37 82.91) rotate(-45)" style="fill:#73d1db"/><rect x="89.92" y="103.52" width="13.89" height="3.88" transform="translate(-46.2 99.39) rotate(-45)" style="fill:#73d1db"/><rect x="44.23" y="40.99" width="3.88" height="21.57" style="fill:#73d1db"/><rect x="44.44" y="64.82" width="3.88" height="4.31" style="fill:#73d1db"/><path d="M19.16,24.9c-.93.84-1.81,1.72-2.65,2.62L13.66,24.9a37.19,37.19,0,0,1,2.9-2.9ZM12,33.44,8.71,31.38c.72-1.15,1.5-2.27,2.29-3.38l3.09,2.36c-.75,1-1.46,2-2.12,3.06m13.11-13c-1,.65-2.09,1.35-3.08,2.1l-2.33-3.1c1.08-.82,2.22-1.59,3.37-2.3ZM8.66,40.09,5,38.67c.5-1.26,1.06-2.52,1.66-3.73l3.47,1.74c-.55,1.1-1.06,2.25-1.52,3.4M31.78,17.14c-1.16.44-2.3.94-3.41,1.49l-1.72-3.48c1.22-.6,2.48-1.15,3.74-1.64ZM6.6,47.24l-3.81-.73c.26-1.34.58-2.67,1-4l3.73,1.08c-.34,1.18-.63,2.4-.87,3.62m32.35-32.1c-1.22.22-2.44.5-3.63.84l-1-3.74c1.31-.36,2.64-.67,4-.92ZM5.88,54.65,2,54.63c0-1.36.08-2.73.21-4.08l3.86.38c-.12,1.22-.18,2.48-.19,3.72M46.36,14.48a28.94,28.94,0,0,0-3.72.16l-.34-3.87c1.35-.12,2.73-.18,4.08-.17ZM6.53,62.06l-3.82.69c-.24-1.34-.43-2.7-.54-4L6,58.37c.11,1.23.27,2.47.49,3.69M53.77,15.19c-1.21-.23-2.45-.41-3.69-.53l.37-3.86a39.28,39.28,0,0,1,4,.58Zm-45.24,54L4.9,70.61C4.42,69.35,4,68,3.62,66.73l3.74-1c.33,1.19.73,2.38,1.17,3.54m52.39-52c-1.15-.45-2.34-.85-3.53-1.19l1.07-3.73c1.31.38,2.61.82,3.87,1.31ZM11.82,75.9l-3.31,2c-.71-1.16-1.38-2.36-2-3.58L10,72.64c.54,1.11,1.15,2.2,1.8,3.26M67.57,20.58a32.83,32.83,0,0,0-3.25-1.82l1.74-3.47c1.21.61,2.41,1.28,3.56,2ZM16.23,81.79l-2.82,2.67-.08-.08c-.88-1-1.73-2-2.53-3.07L13.91,79a33.18,33.18,0,0,0,2.31,2.81M73.49,25.08c-.91-.84-1.87-1.64-2.85-2.39L73,19.6c1.08.82,2.13,1.7,3.13,2.62ZM19.39,90c-1.07-.82-2.13-1.71-3.12-2.63l2.63-2.85c.91.84,1.87,1.64,2.85,2.39ZM81.7,28.41l-3.11,2.32a31.75,31.75,0,0,0-2.36-2.88l-.11-.12L79,25.13l.11.12c.91,1,1.78,2.07,2.59,3.15M26.3,94.32c-1.21-.61-2.41-1.28-3.56-2L24.81,89A33.9,33.9,0,0,0,28,90.83Zm59.7-59-3.49,1.71C82,36,81.36,34.87,80.72,33.82l3.31-2c.71,1.16,1.37,2.36,2,3.58M33.9,97.3c-1.3-.38-2.6-.82-3.86-1.31l1.42-3.62c1.15.45,2.34.86,3.53,1.2ZM88.85,43l-3.74,1c-.33-1.19-.72-2.38-1.16-3.54l3.63-1.38c.48,1.27.91,2.57,1.27,3.88M41.91,98.84c-1.35-.13-2.71-.33-4-.58l.73-3.81c1.21.23,2.45.41,3.69.53ZM90.29,51l-3.87.33c-.11-1.23-.27-2.47-.49-3.69L89.75,47c.24,1.34.42,2.7.53,4M50.07,98.88C48.72,99,47.35,99,46,99V95.16A30.77,30.77,0,0,0,49.71,95Zm40.17-39.7-3.86-.38c.12-1.23.19-2.49.2-3.72h3.88c0,1.35-.08,2.73-.21,4.08M58.09,97.43c-1.3.36-2.64.67-4,.91l-.69-3.82c1.22-.22,2.44-.5,3.63-.83Zm30.6-30.25L85,66.11c.34-1.19.64-2.4.87-3.62l3.81.73a36.53,36.53,0,0,1-1,4" style="fill:#73d1db"/></svg>