<svg id="Слой_1" data-name="Слой 1" xmlns="http://www.w3.org/2000/svg" viewBox="0 0 122 122"><title>check_control-01</title><rect x="32.49" y="70.38" width="3.89" height="13.77" style="fill:#73d1db"/><rect x="27.55" y="75.32" width="13.77" height="3.89" style="fill:#73d1db"/><path d="M34.44,65.82A11.44,11.44,0,1,0,45.88,77.27,11.44,11.44,0,0,0,34.44,65.82m0,26.77A15.33,15.33,0,1,1,49.76,77.25s0,0,0,0A15.35,15.35,0,0,1,34.44,92.6" style="fill:#73d1db"/><rect x="2.94" y="56.06" width="62.98" height="3.89" style="fill:#73d1db"/><rect x="2.94" y="94.59" width="62.98" height="3.89" style="fill:#73d1db"/><path d="M4.89,118.34H64V58A29.54,29.54,0,0,0,43.3,29.82l-1.36-.43V24.53h-15v4.86l-1.36.43A29.54,29.54,0,0,0,4.89,58Zm63,3.89H1V58A33.43,33.43,0,0,1,23,26.57V20.64H45.83v5.93A33.43,33.43,0,0,1,67.87,58Z" style="fill:#73d1db"/><path d="M14.4,52l-3.72-1.11A24.81,24.81,0,0,1,16.9,40.47,24.39,24.39,0,0,1,27,34.35l1.16,3.71a20.53,20.53,0,0,0-8.5,5.16A20.91,20.91,0,0,0,14.4,52" style="fill:#73d1db"/><path d="M19.06,5.63H49.82v15H19.06Zm-3.89,18.9H53.7V1.75H15.17Z" style="fill:#73d1db"/><rect x="22.1" y="8.75" width="3.89" height="8.78" style="fill:#73d1db"/><rect x="29.03" y="8.75" width="3.89" height="8.78" style="fill:#73d1db"/><rect x="35.96" y="8.75" width="3.89" height="8.78" style="fill:#73d1db"/><rect x="42.88" y="8.75" width="3.89" height="8.78" style="fill:#73d1db"/></svg>