<svg id="Isolation_Mode" data-name="Isolation Mode" xmlns="http://www.w3.org/2000/svg" viewBox="0 0 122 122"><defs><style>.cls-1{fill:#73d1db;}</style></defs><title>complex</title><path class="cls-1" d="M58,118.35a36.4,36.4,0,0,1-7.4-.7l-1.6-.3v-13.2h3.9v9.9a35.55,35.55,0,0,0,10.3,0v-9.9H67v13.2l-1.6.3A36.4,36.4,0,0,1,58,118.35Z"/><path class="cls-1" d="M25.7,64.25l-3.5-1.6a39.44,39.44,0,0,1,71.7,0l-3.5,1.6a35.56,35.56,0,0,0-64.7,0Z"/><path class="cls-1" d="M95.5,106.15H68.4V90.25a14.08,14.08,0,0,1,1.1-5.4,14.36,14.36,0,0,1,3.1-4.6l18.1-18.1a8.2,8.2,0,0,1,5.7-2.4,7.63,7.63,0,0,1,5.7,2.4,8.2,8.2,0,0,1,2.4,5.7,7.63,7.63,0,0,1-2.4,5.7L88.7,86.85a8.2,8.2,0,0,1-5.7,2.4v-3.9a4.23,4.23,0,0,0,3-1.2l13.3-13.3a4.07,4.07,0,0,0,1.2-3,4.23,4.23,0,0,0-1.2-3,4.07,4.07,0,0,0-3-1.2,4.23,4.23,0,0,0-3,1.2L75.3,83a10,10,0,0,0-2.2,3.3,10.87,10.87,0,0,0-.8,3.9v12H91.8a19.08,19.08,0,0,1,1.5-5.8,19.59,19.59,0,0,1,4.4-6.6l13.4-13.4A3.39,3.39,0,0,0,112,75a4.15,4.15,0,0,0,.3-1.6V38.65a4.23,4.23,0,0,0-1.2-3,4.07,4.07,0,0,0-3-1.2,4.23,4.23,0,0,0-3,1.2,4.07,4.07,0,0,0-1.2,3v17.5H100V38.65a7.63,7.63,0,0,1,2.4-5.7,8.2,8.2,0,0,1,5.7-2.4,7.63,7.63,0,0,1,5.7,2.4,8.2,8.2,0,0,1,2.4,5.7v34.8a8.15,8.15,0,0,1-.6,3.1,6.76,6.76,0,0,1-1.8,2.6l-13.3,13.3a17.75,17.75,0,0,0-3.6,5.3,16.9,16.9,0,0,0-1.3,6.3v2.1Z"/><polygon class="cls-1" points="100.7 115.75 96.9 115.75 96.9 106.15 67 106.15 67 115.75 63.2 115.75 63.2 102.25 100.7 102.25 100.7 115.75"/><path class="cls-1" d="M47.7,106.15H20.5v-1.9a15.14,15.14,0,0,0-1.3-6.3,14.69,14.69,0,0,0-3.6-5.3L2.4,79.25a6.54,6.54,0,0,1-1.7-2.6,8.15,8.15,0,0,1-.6-3.1V38.65A7.63,7.63,0,0,1,2.5,33a7.54,7.54,0,0,1,5.6-2.3,7.63,7.63,0,0,1,5.7,2.4,8.2,8.2,0,0,1,2.4,5.7v17.5H12.3V38.65a4.23,4.23,0,0,0-1.2-3,4.07,4.07,0,0,0-3-1.2,4.23,4.23,0,0,0-3,1.2,4.07,4.07,0,0,0-1.2,3v34.8a4.15,4.15,0,0,0,.3,1.6,4.19,4.19,0,0,0,.9,1.4l13.4,13.4a19.59,19.59,0,0,1,4.4,6.6,19.86,19.86,0,0,1,1.5,5.8H43.9v-12a10.06,10.06,0,0,0-.8-3.9,9.55,9.55,0,0,0-2.2-3.3L22.7,64.85a4.07,4.07,0,0,0-3-1.2,4.23,4.23,0,0,0-3,1.2,4.07,4.07,0,0,0-1.2,3,4.23,4.23,0,0,0,1.2,3L30,84.15a4.07,4.07,0,0,0,3,1.2v3.9a7.63,7.63,0,0,1-5.7-2.4L14,73.55a8.2,8.2,0,0,1-2.4-5.7,7.63,7.63,0,0,1,2.4-5.7,8,8,0,0,1,5.7-2.4,7.63,7.63,0,0,1,5.7,2.4l18.1,18.1a14.19,14.19,0,0,1,4.2,10Z"/><polygon class="cls-1" points="52.9 115.75 49 115.75 49 106.15 19.2 106.15 19.2 115.75 15.3 115.75 15.3 102.25 52.9 102.25 52.9 115.75"/><path class="cls-1" d="M42,37.25h0a15.07,15.07,0,0,1-15-13.1L23.5,3.65,44,7.05a15.65,15.65,0,0,1,8.7,4.3,15.27,15.27,0,0,1,0,21.5A14.64,14.64,0,0,1,42,37.25ZM28.3,8.35l2.5,15.1a11.31,11.31,0,1,0,12.6-12.6Z"/><path class="cls-1" d="M74,37.25a15,15,0,0,1-10.7-4.4,15.27,15.27,0,0,1,0-21.5A16.32,16.32,0,0,1,72,7.05l20.5-3.4-3.4,20.5a16,16,0,0,1-4.3,8.7A15,15,0,0,1,74,37.25ZM87.8,8.35,72.6,11a11.31,11.31,0,1,0,12.6,12.6Z"/><rect class="cls-1" x="56.1" y="38.15" width="3.9" height="40.8"/><polygon class="cls-1" points="58 40.85 40.6 23.45 43.4 20.75 58 35.35 72.7 20.75 75.4 23.45 58 40.85"/></svg>