<svg id="Слой_1" xmlns="http://www.w3.org/2000/svg" xmlns:xlink="http://www.w3.org/1999/xlink" viewBox="0 0 2141.9 660"><style>.st0{opacity:.1}.st1{fill:#e6e6e6}.st1,.st2,.st3{clip-path:url(#SVGID_2_)}.st2{fill:#ccc}.st3{fill:gray}</style><g class="st0"><defs><path id="SVGID_1_" class="st0" d="M0 0h2141.9v660H0z"/></defs><clipPath id="SVGID_2_"><use xlink:href="#SVGID_1_" overflow="visible"/></clipPath><path class="st1" d="M315.2 272.5c-5.5 5.4-14.3 5.4-19.7-.1-5.4-5.5-5.4-14.3 0-19.7 5.5-5.4 14.3-5.4 19.7.1 5.5 5.5 5.5 14.3 0 19.7m103.7 104c-5.5 5.4-14.3 5.4-19.7-.1-5.4-5.5-5.4-14.3 0-19.7 5.5-5.4 14.3-5.4 19.7.1 5.5 5.5 5.5 14.3 0 19.7m-160-20.6c-8.4 8.3-22 8.3-30.3-.2-8.4-8.4-8.3-22 .1-30.3s22-8.3 30.3.2c8.3 8.4 8.3 22-.1 30.3"/><path transform="rotate(-44.798 357.949 314.496)" class="st1" d="M357.1 253.5h1.8v121.9h-1.8z"/><path transform="rotate(-51.386 277.828 298.939)" class="st1" d="M244.7 298.1H311v1.8h-66.3z"/><path class="st1" d="M141.7 436.1c5.2 5.7 4.7 14.6-1 19.7s-14.6 4.7-19.7-1.1c-5.2-5.7-4.7-14.6 1-19.7 5.7-5.2 14.5-4.7 19.7 1.1m70.2 59.1c5.2 5.7 4.7 14.6-1 19.7s-14.6 4.7-19.7-1.1c-5.2-5.7-4.7-14.6 1-19.7s14.5-4.6 19.7 1.1M51 449c5.2 5.7 4.7 14.6-1 19.7s-14.6 4.7-19.7-1.1c-5.2-5.7-4.7-14.6 1-19.7s14.6-4.7 19.7 1.1"/><path transform="rotate(-41.911 185.602 395.6)" class="st1" d="M124.9 394.7h121.5v1.8H124.9z"/><path transform="rotate(-48.547 166.388 474.757)" class="st1" d="M165.5 441.5h1.8V508h-1.8z"/><path class="st1" d="M52.7 455.9l65.7-9.5.2 1.8-65.7 9.5zm284.5 4.3c2.9 3.2 2.6 8.2-.6 11.1-3.2 2.9-8.2 2.6-11.1-.6-2.9-3.2-2.6-8.2.6-11.1 3.2-2.9 8.2-2.7 11.1.6m-99.3-27.6c2.9 3.2 2.6 8.2-.6 11.1-3.2 2.9-8.2 2.6-11.1-.6-2.9-3.2-2.6-8.2.6-11.1 3.2-2.9 8.2-2.7 11.1.6"/><path transform="rotate(-48.547 311.614 448.65)" class="st1" d="M311.1 430h1v37.3h-1z"/><path class="st1" d="M202.1 548.3c-1.2 4.1-5.6 6.5-9.7 5.3-4.2-1.2-6.5-5.6-5.3-9.7 1.2-4.1 5.6-6.5 9.7-5.3 4.1 1.2 6.5 5.5 5.3 9.7"/><path class="st1" d="M194.8 538.9l3.7-21.9 1 .1-3.7 21.9zm-175.9-109c-1.2-2.9.1-6.3 3.1-7.6 2.9-1.2 6.3.2 7.6 3.1 1.2 2.9-.1 6.3-3.1 7.6-3 1.2-6.4-.1-7.6-3.1"/><path class="st1" d="M27.4 431.9l8.1 14.3-.7.4-8-14.3zm317.4-212.4c3.5-2.5 8.4-1.6 10.9 2s1.6 8.4-1.9 10.9c-3.6 2.5-8.4 1.6-10.9-2-2.6-3.5-1.7-8.4 1.9-10.9"/><path transform="rotate(-41.351 330.225 243.364)" class="st1" d="M311.6 242.9h37.2v1h-37.2z"/><path class="st1" d="M238.8 436.4l36.9-5.3.1 1-36.8 5.3zm-109.2 59.7c3.3-2.8 8.2-2.5 11.1.8 2.8 3.3 2.5 8.2-.8 11-3.3 2.8-8.2 2.5-11.1-.8-2.8-3.2-2.5-8.2.8-11"/><path class="st1" d="M133.5 495.3l-4.8-37 1-.1 4.8 37zm313.2-168.4c-5.4-5.5-5.3-14.4.2-19.7 5.5-5.4 14.3-5.3 19.7.3 5.4 5.5 5.3 14.4-.2 19.7-5.5 5.3-14.3 5.2-19.7-.3m-72.6-56.2c-5.4-5.5-5.3-14.4.2-19.7 5.5-5.4 14.3-5.3 19.7.3 5.4 5.5 5.3 14.4-.2 19.7-5.4 5.3-14.3 5.2-19.7-.3m162.6 39.5c-5.4-5.5-5.3-14.4.2-19.7 5.5-5.4 14.3-5.3 19.7.3 5.4 5.5 5.3 14.4-.2 19.7s-14.3 5.2-19.7-.3"/><path transform="rotate(-44.316 431.92 342.38)" class="st1" d="M409.4 341.5h45v1.8h-45z"/><path transform="rotate(-50.934 420.437 289.23)" class="st1" d="M419.5 256h1.8v66.5h-1.8z"/><path class="st1" d="M534.8 303.3l-65.2 12.2-.4-1.7 65.3-12.3zm-153.1-86.1c1-4.2 5.3-6.7 9.5-5.7s6.8 5.3 5.7 9.5c-1 4.2-5.3 6.7-9.5 5.7s-6.8-5.3-5.7-9.5"/><path class="st1" d="M389.4 226.4l-2.8 22-1-.1 2.8-22.1zm180.3 101.5c1.4 2.9.1 6.3-2.8 7.7-2.9 1.3-6.3.1-7.7-2.8-1.4-2.9-.1-6.3 2.8-7.7 2.9-1.4 6.3-.1 7.7 2.8"/><path class="st1" d="M561 326.2l-8.6-13.9.6-.4 8.6 13.9zm-104.7-59.9c-3.1 3-8.1 2.8-11.1-.3-3-3.2-2.8-8.1.3-11.1 3.1-3 8.1-2.8 11.1.3 3 3.2 2.9 8.2-.3 11.1"/><path class="st1" d="M452.4 267.3l6.4 36.8-1 .2-6.4-36.8zm-94.2 102c2.9 3.2 2.6 8.2-.6 11.1-3.2 2.9-8.2 2.6-11.1-.6-2.9-3.2-2.6-8.2.6-11.1 3.3-2.8 8.2-2.6 11.1.6"/><path class="st1" d="M359.2 373.2l36.8-5.3.2 1-36.9 5.3zm-82.4 47.9c3.9-6.6 12.4-8.8 19.1-4.9 6.7 3.9 8.9 12.5 5 19.1s-12.4 8.8-19.1 4.9c-6.7-3.9-8.9-12.5-5-19.1"/><path class="st1" d="M282.9 417.5l-29.1-59.8 1.6-.8 29.1 59.8zm.2-230.2c-4.2 6.4-12.9 8.2-19.3 4-6.5-4.2-8.3-12.9-4-19.3 4.2-6.4 12.9-8.2 19.3-4 6.5 4.2 8.3 12.8 4 19.3"/><path class="st1" d="M276.9 190.6l26.1 61.1-1.6.7-26.2-61.1zM157.1 329c3.9 6.7 1.6 15.2-5.1 19-6.7 3.8-15.2 1.5-19.1-5.1-3.9-6.7-1.6-15.2 5.1-19 6.7-3.9 15.2-1.6 19.1 5.1"/><path class="st1" d="M157.2 336.1l66.3 4.3-.1 1.8-66.3-4.3zM464.7 413c4.2 6.4 2.4 15-4 19.2-6.4 4.2-15 2.4-19.2-4-4.2-6.4-2.4-15 4-19.2 6.4-4.2 15-2.4 19.2 4"/><path transform="rotate(-39.924 430.964 393.461)" class="st1" d="M430.4 371.9h1.2v43h-1.2z"/><path class="st1" d="M91.7 268.3c5 5.9 4.4 14.7-1.5 19.7-5.8 5-14.7 4.3-19.7-1.5-5-5.9-4.4-14.7 1.5-19.7 5.9-5.1 14.7-4.4 19.7 1.5m110.9-95.5c5 5.9 4.4 14.7-1.5 19.7-5.8 5-14.7 4.3-19.7-1.5-5-5.9-4.4-14.7 1.5-19.7s14.7-4.4 19.7 1.5"/><path transform="rotate(-40.608 136.527 228.862)" class="st1" d="M75.8 228h121.5v1.8H75.8z"/><path transform="rotate(-47.258 115.495 307.53)" class="st1" d="M114.6 274.3h1.8v66.5h-1.8z"/><path class="st1" d="M40.8 234.8c-2.2-3.7-1-8.5 2.7-10.7 3.7-2.2 8.5-1 10.7 2.8 2.2 3.7 1 8.5-2.7 10.7-3.6 2.2-8.4 1-10.7-2.8"/><path class="st1" d="M52.7 235.9l22.6 29.7-.8.7-22.6-29.7zM155 141.3c-5.9 5-14.7 4.2-19.7-1.7s-4.3-14.7 1.6-19.7 14.7-4.2 19.7 1.7c5 6 4.2 14.8-1.6 19.7m-61.1 68.1c-5.9 5-14.7 4.2-19.7-1.7S69.9 193 75.8 188s14.7-4.2 19.7 1.7c5 6 4.3 14.8-1.6 19.7"/><path class="st1" d="M183.3 175.1l-29.1-34.5 1.3-1.1 29.2 34.4z"/><path transform="rotate(-46.796 115.568 164.692)" class="st1" d="M82.4 163.8h66.3v1.8H82.4z"/><path class="st1" d="M41.1 197.9c-4.1-1.3-6.4-5.8-5-9.9 1.3-4.1 5.8-6.4 9.9-5 4.1 1.3 6.4 5.8 5 9.9-1.4 4.1-5.8 6.3-9.9 5"/><path class="st1" d="M50.7 190.9l21.8 4.4-.2 1-21.8-4.4zm44.5-63.7c2.7 3.4 2.2 8.3-1.1 11-3.3 2.7-8.3 2.2-11-1.1-2.7-3.4-2.2-8.3 1.1-11 3.3-2.8 8.3-2.3 11 1.1"/><path class="st1" d="M95.9 131.1l37.2-3.5.1 1-37.2 3.5zm95.4 101.6c3.4-2.6 8.3-2 11 1.4 2.7 3.4 2 8.3-1.4 11-3.4 2.6-8.3 2-11-1.4-2.6-3.4-2-8.3 1.4-11"/><path class="st1" d="M195.2 232.1l-2.8-37.2h1.1l2.7 37.1zM4.4 293.8c-1.4-1-2.9-1.8-4.4-2.3v26.7c2.7-.8 5.2-2.4 7.1-4.9 4.6-6 3.4-14.8-2.7-19.5"/><path class="st1" d="M7.3 300.3l62.8-21.4.6 1.7L7.9 302zm252.5-120.8l-54 .6v-1.2l53.9-.5zm360.4 147.8c-2.3-7.4 1.8-15.2 9.2-17.4 7.4-2.3 15.2 1.9 17.5 9.2 2.3 7.4-1.8 15.2-9.2 17.4-7.4 2.3-15.2-1.9-17.5-9.2"/><path class="st1" d="M621.6 320.3l-63.8-18.8.5-1.7 63.8 18.8zm60.8-45.9c-7.7.1-14.1-6-14.3-13.7-.2-7.7 5.9-14.1 13.6-14.2 7.7-.1 14.1 6 14.3 13.7.2 7.7-5.9 14-13.6 14.2m54.4-16.7c-.1-7.7 6-14 13.8-14.1 7.7-.1 14 6.1 14.2 13.8.1 7.7-6 14-13.8 14.1-7.7.1-14.1-6.1-14.2-13.8m-13.9-90.6c-.1-7.7 6-14 13.8-14.1 7.7-.1 14 6.1 14.2 13.8.1 7.7-6 14-13.8 14.1-7.8.1-14.1-6.1-14.2-13.8m90.9 140.6c-.1-7.7 6-14 13.8-14.1 7.7-.1 14 6.1 14.2 13.8.1 7.7-6 14-13.8 14.1-7.8.1-14.1-6.1-14.2-13.8"/><path class="st1" d="M692.8 258l45.1-.5v1.8l-45 .5zm47.5-78.6l8.6 65.8-1.8.2-8.6-65.8z"/><path transform="rotate(-57.09 789.652 282.585)" class="st1" d="M788.8 249.3h1.8v66.5h-1.8z"/><path class="st1" d="M765.2 133.7c3.6-2.3 8.5-1.2 10.8 2.4 2.3 3.7 1.3 8.5-2.4 10.8-3.6 2.3-8.5 1.2-10.8-2.4-2.3-3.6-1.2-8.4 2.4-10.8"/><path transform="rotate(-39.05 755.588 152.238)" class="st1" d="M744.5 151.7h22.2v1h-22.2z"/><path class="st1" d="M825.5 343.2c-1 3-4.3 4.7-7.3 3.6-3-1-4.7-4.3-3.7-7.3s4.3-4.7 7.3-3.6c3 1 4.7 4.2 3.7 7.3"/><path class="st1" d="M820.3 336l3.4-16 .7.1-3.3 16.1zm-34.7-115.4c-4.3 0-7.8-3.6-7.8-7.9 0-4.3 3.5-7.8 7.9-7.8 4.3 0 7.8 3.6 7.8 7.9-.1 4.4-3.6 7.8-7.9 7.8"/><path transform="rotate(-56.138 771.249 233.839)" class="st1" d="M752.7 233.3h37.2v1h-37.2z"/><path class="st1" d="M604.3 185.9c-6.2 4.6-14.9 3.3-19.5-2.9-4.6-6.2-3.3-14.9 2.9-19.5 6.2-4.6 14.9-3.3 19.5 2.9 4.5 6.1 3.2 14.9-2.9 19.5m-65.4 64c-6.2 4.6-14.9 3.3-19.5-2.9-4.6-6.2-3.3-14.9 2.9-19.5 6.2-4.6 14.9-3.3 19.5 2.9 4.6 6.2 3.3 14.9-2.9 19.5m60.7-155.5c-6.2 4.6-14.9 3.3-19.5-2.9S576.8 76.6 583 72c6.2-4.6 14.9-3.3 19.5 2.9 4.6 6.2 3.3 14.9-2.9 19.5"/><path class="st1" d="M630.4 221.3l-26.9-36.2 1.4-1.1 26.9 36.2z"/><path transform="rotate(-43.104 563.444 206.636)" class="st1" d="M530.3 205.7h66.3v1.8h-66.3z"/><path class="st1" d="M592.6 95.3l3.4 66.3-1.8.1-3.4-66.3zM487 235c-4-1.6-6-6.2-4.4-10.2 1.6-4 6.1-6 10.2-4.4 4 1.6 6 6.2 4.4 10.2-1.7 4-6.2 6-10.2 4.4"/><path class="st1" d="M497 228.6l21.5 5.8-.3 1-21.4-5.8zM621.5 64.2c3-.9 6.3.8 7.2 3.8 1 3-.7 6.3-3.8 7.2-3 .9-6.3-.8-7.2-3.8-.9-3 .8-6.2 3.8-7.2"/><path class="st1" d="M618.8 72.6l-15 6.6-.3-.7 14.9-6.6zm-73.3 95.3c2.5 3.5 1.7 8.4-1.8 10.9s-8.4 1.7-10.9-1.8-1.7-8.4 1.8-10.9 8.4-1.7 10.9 1.8"/><path class="st1" d="M546 171.9l37.3-1.2v1l-37.3 1.2zm97.2 55.5c-.1 4.3-3.7 7.7-8 7.6-4.3-.1-7.7-3.7-7.6-8.1.1-4.3 3.7-7.7 8-7.6 4.3.1 7.7 3.8 7.6 8.1"/><path transform="rotate(-54.697 656.145 242.03)" class="st1" d="M655.6 223.4h1v37.3h-1z"/><path transform="rotate(-51.222 658.312 293.543)" class="st1" d="M631.4 293h53.8v1.2h-53.8z"/><path class="st1" d="M500.7 497.7c4.3-2.5 9.8-1.1 12.4 3.2 2.5 4.3 1.1 9.8-3.2 12.4-4.3 2.5-9.8 1.1-12.4-3.2-2.5-4.3-1.1-9.8 3.2-12.4m46.5-36.7c4.3-2.5 9.8-1.1 12.4 3.2s1.1 9.8-3.2 12.4c-4.3 2.5-9.8 1.1-12.4-3.2-2.6-4.3-1.1-9.9 3.2-12.4m-49.8 95.9c4.3-2.5 9.8-1.1 12.4 3.2 2.5 4.3 1.1 9.8-3.2 12.4-4.3 2.5-9.8 1.1-12.4-3.2-2.5-4.3-1.1-9.9 3.2-12.4"/><path class="st1" d="M461.1 430.3l40 68-1 .6-40-68zm84.8 44.4l-34.3 25.8-.7-.9 34.3-25.8zM502 556.8l2.3-42.9h1.2l-2.3 42.9zM540.8 377c2.4-1.4 5.5-.6 6.9 1.8 1.4 2.4.6 5.5-1.8 6.9-2.4 1.4-5.5.6-6.9-1.8-1.5-2.4-.7-5.5 1.8-6.9m-30.1 59.3c2.4-1.4 5.5-.6 6.9 1.8 1.4 2.4.6 5.5-1.8 6.9-2.4 1.4-5.5.6-6.9-1.8-1.4-2.4-.6-5.5 1.8-6.9"/><path class="st1" d="M540 384.7l-19.2 14.5-.4-.5 19.3-14.5zm39.6 89.5c2.5 1.3 3.4 4.4 2.1 6.9-1.3 2.5-4.4 3.4-6.8 2.1-2.5-1.3-3.4-4.4-2.1-6.9 1.2-2.5 4.3-3.4 6.8-2.1"/><path transform="rotate(-68.734 566.058 474.677)" class="st1" d="M565.7 467.5h.7v14.4h-.7z"/><path class="st1" d="M481.2 574.8c-2 .4-4-.9-4.4-2.9-.4-2 .9-4 2.9-4.4 2-.4 4 .9 4.4 2.9.5 2-.8 4-2.9 4.4"/><path transform="rotate(-17.73 488.787 568.325)" class="st1" d="M483.4 568H494v.5h-10.6z"/><path class="st1" d="M513.3 436.2l1.2-24h.7l-1.3 24.1zm24 77.1c-1.4-2.4-.5-5.5 1.9-6.9 2.4-1.4 5.5-.5 6.9 1.9 1.4 2.4.5 5.5-1.9 6.9-2.4 1.4-5.5.5-6.9-1.9"/><path class="st1" d="M537.2 510.7l-24-1.8v-.6l24.1 1.8zm-28.9-100.6c-3.7-3.3-4-9-.7-12.8 3.3-3.7 9-4 12.8-.7 3.7 3.3 4 9 .7 12.8-3.3 3.8-9 4.1-12.8.7"/><path class="st1" d="M506.8 405.8l-41.6 10.6-.3-1.1 41.6-10.6zM434.7 474c4.7-1.6 9.9 1 11.4 5.7 1.6 4.7-1 9.8-5.7 11.4-4.7 1.6-9.9-1-11.4-5.7-1.6-4.8 1-9.9 5.7-11.4"/><path class="st1" d="M439.2 474.8l11.2-41.5 1.1.3-11.1 41.5zm8.6-294.8c-3-7.1.4-15.2 7.5-18.1 7.1-2.9 15.2.4 18.2 7.5s-.4 15.2-7.5 18.1c-7.1 3-15.2-.4-18.2-7.5"/><path class="st1" d="M467.4 186.4l21 37.6-1 .5-21.1-37.5zm-39.2-96.3c-4.7 1.7-9.9-.8-11.6-5.5-1.7-4.7.7-9.9 5.4-11.5 4.7-1.7 9.9.8 11.6 5.5 1.7 4.7-.7 9.9-5.4 11.5m-52.5 27.4c-4.7 1.7-9.9-.8-11.6-5.5-1.7-4.7.7-9.9 5.4-11.5 4.7-1.7 9.9.8 11.6 5.5 1.7 4.7-.7 9.9-5.4 11.5"/><path class="st1" d="M454.6 163.7l-26.8-74.2 1.1-.4 26.8 74.2zm-75.1-59.4l38.5-19 .5 1.1-38.5 19zm-13.2 96.9c-2.6.9-5.5-.4-6.5-3.1-1-2.6.4-5.5 3-6.5 2.6-.9 5.5.4 6.5 3.1s-.3 5.6-3 6.5m40.6-52.6c-2.6.9-5.5-.4-6.5-3.1-.9-2.6.4-5.5 3.1-6.5 2.6-.9 5.5.4 6.5 3.1.9 2.6-.4 5.5-3.1 6.5"/><path class="st1" d="M368.5 193.8l21.6-10.6.3.5-21.7 10.7zm-22.3-95.2c-2.2-1.7-2.6-4.9-.8-7.1 1.7-2.2 4.9-2.5 7.1-.8 2.2 1.7 2.6 4.9.8 7.1-1.7 2.2-4.9 2.6-7.1.8"/><path transform="rotate(-58.057 359.577 100.63)" class="st1" d="M359.3 93.4h.7v14.4h-.7z"/><path class="st1" d="M404.4 148.2l-5.8 23.4-.6-.2 5.8-23.4zM395.1 68c.9 2.7-.5 5.5-3.2 6.4-2.7.9-5.5-.5-6.4-3.2-.9-2.7.5-5.5 3.2-6.4 2.6-.8 5.5.6 6.4 3.2"/><path class="st1" d="M394.7 70.6l23.3 6.2-.2.7-23.3-6.3zM6.2 405.8c-1.9-1.2-4.1-1.5-6.2-1.2v17.8c3.6.6 7.3-.9 9.3-4.2 2.6-4.3 1.2-9.8-3.1-12.4m4.1 34.7c0 2.8-2.2 5.1-5 5.1s-5.1-2.2-5.2-5c0-2.8 2.2-5.1 5-5.1s5.1 2.2 5.2 5"/><path class="st1" d="M3.9 436.1l-1.8-14.3.6-.1L4.6 436zm810.3-22.7c6.2-4.5 15-3.1 19.5 3.1s3.2 15-3.1 19.5c-6.2 4.5-15 3.1-19.5-3.1s-3.2-15 3.1-19.5"/><path class="st1" d="M821.2 412.5l-2.8-66.3 1.8-.1 2.8 66.3zm161.3-86.7c-1.2-7.6 3.9-14.8 11.5-16 7.6-1.2 14.8 4 16 11.6 1.2 7.6-3.9 14.8-11.5 16-7.6 1.1-14.8-4-16-11.6m39.7 79.8c-2.6-7.3 1.1-15.2 8.4-17.8 7.2-2.6 15.3 1.2 17.9 8.4 2.6 7.2-1.1 15.2-8.4 17.8s-15.3-1.2-17.9-8.4m-137.7 49.9c-2.6-7.3 1.1-15.2 8.4-17.8 7.2-2.6 15.3 1.2 17.9 8.4 2.6 7.2-1.1 15.2-8.4 17.8-7.3 2.6-15.3-1.2-17.9-8.4"/><path class="st1" d="M908.7 446.3l114.4-41.2.6 1.7L909.3 448zm91-115.9l29.8 59.4-1.6.8-29.8-59.4zm58.2 124.4c.8 4.3-2.1 8.3-6.4 9-4.3.7-8.3-2.1-9.1-6.4-.8-4.3 2.1-8.3 6.4-9 4.3-.7 8.4 2.2 9.1 6.4"/><path class="st1" d="M1047.2 449.6l-10.7-35.8 1-.2 10.6 35.7zm-129.3 52.1c7.3-2.5 15.2 1.3 17.8 8.5 2.6 7.3-1.2 15.2-8.5 17.8-7.3 2.5-15.2-1.3-17.8-8.5-2.6-7.3 1.2-15.2 8.5-17.8m81.3-41.9c7.3-2.6 15.2 1.3 17.8 8.5 2.6 7.3-1.2 15.2-8.5 17.8-7.3 2.5-15.2-1.3-17.8-8.5-2.5-7.3 1.3-15.3 8.5-17.8"/><path class="st1" d="M903.3 460.2l15.1 42.5-1.7.6-15.1-42.5zm90 19.9l-59.7 29.1-.8-1.6 59.7-29.1zm51.3 9.2c3.4 2.7 3.9 7.6 1.2 11-2.7 3.4-7.6 3.9-11 1.2-3.4-2.7-3.9-7.6-1.2-11 2.7-3.4 7.6-3.9 11-1.2"/><path class="st1" d="M1033.1 492.4l-18.9-11.9.6-.8 18.8 11.9zm-64.3 43.7c-1.4-4.1.8-8.5 4.9-9.9 4.1-1.4 8.5.9 9.9 5 1.4 4.1-.8 8.5-4.9 9.9-4.1 1.3-8.5-.9-9.9-5"/><path class="st1" d="M969.5 532.2l-36-9.9.3-.9 36 9.8zm-53.2-128.7c-4.1 1.3-8.5-1.1-9.8-5.2-1.3-4.1 1-8.5 5.2-9.8 4.1-1.3 8.5 1.1 9.8 5.2 1.3 4.2-1.1 8.5-5.2 9.8"/><path class="st1" d="M912.4 402.7l-10.6 35.7-1-.3 10.6-35.7zm200.5 10c-4.1-6.6-2.1-15.1 4.5-19.2 6.5-4.1 15.2-2 19.2 4.5 4.1 6.6 2.1 15.1-4.5 19.2-6.5 4.1-15.1 2-19.2-4.5"/><path class="st1" d="M1112.5 405.6l-66.4-2.2.1-1.8 66.4 2.2zm-279.2 23.3l50.7 18.6-.4 1.1-50.7-18.6zm84-112.5c.5-5 5-8.5 9.9-8 5 .5 8.6 5 8 10-.5 5-5 8.5-9.9 8-4.9-.6-8.5-5.1-8-10m-1.9-59.3c.5-5 5-8.5 9.9-8 5 .5 8.6 5 8 10-.5 5-5 8.5-9.9 8-4.9-.6-8.5-5-8-10"/><path class="st1" d="M839.7 307.8l78.3 8.6-.1 1.1-78.3-8.5zm85.9-41.5l.5 43h-1.2l-.4-43zm19.6-27.3c2.5-1.2 5.6-.1 6.8 2.4 1.2 2.5.2 5.6-2.4 6.8-2.5 1.2-5.6.1-6.8-2.4-1.2-2.6-.1-5.6 2.4-6.8"/><path transform="rotate(-32.16 937.592 250.09)" class="st1" d="M930.4 249.8h14.4v.7h-14.4z"/><path class="st1" d="M951.5 296.3c-2.8-.4-4.8-2.9-4.4-5.7s2.9-4.7 5.7-4.4c2.8.4 4.8 2.9 4.4 5.7-.3 2.8-2.9 4.8-5.7 4.4"/><path class="st1" d="M949.4 294.8l-15.7 18.3-.5-.5 15.7-18.2zm-545-120.1c3 4 2.3 9.6-1.7 12.7-4 3-9.6 2.2-12.7-1.7-3-4-2.3-9.6 1.7-12.7 4-3 9.6-2.3 12.7 1.7"/><path class="st1" d="M405.1 179.3l42.9-2.7v1.1l-42.9 2.7zm83.5-53.6c-4.9.7-9.5-2.8-10.2-7.7-.7-4.9 2.8-9.5 7.7-10.2 4.9-.7 9.5 2.8 10.2 7.7.7 5-2.7 9.6-7.7 10.2"/><path class="st1" d="M484.3 124.1l-18.6 38.6-1.1-.5 18.7-38.6z"/><path class="st2" d="M1406.8 292c5.5 5.4 14.4 5.4 19.8-.1 5.5-5.5 5.4-14.3 0-19.7-5.5-5.4-14.4-5.4-19.8.1-5.6 5.4-5.5 14.3 0 19.7m-104.3 104c5.5 5.4 14.4 5.4 19.8-.1 5.5-5.5 5.5-14.3 0-19.7-5.5-5.4-14.4-5.4-19.8.1-5.5 5.4-5.5 14.2 0 19.7m160.9-20.6c8.4 8.3 22.1 8.3 30.5-.2 8.4-8.4 8.4-22-.1-30.3-8.4-8.3-22.1-8.3-30.5.2-8.3 8.3-8.3 21.9.1 30.3"/><path class="st2" d="M1321.3 377.8l86.3-86.5-1.3-1.3-86.3 86.6zm144.5-34.1l-41.5-51.8-1.5 1.2 41.6 51.8zm115.4 111.8c-5.2 5.7-4.7 14.6 1 19.7 5.8 5.1 14.6 4.7 19.8-1.1 5.2-5.7 4.7-14.6-1-19.7s-14.6-4.7-19.8 1.1m-70.5 59.2c-5.2 5.7-4.7 14.6 1 19.7 5.8 5.1 14.6 4.7 19.8-1.1 5.2-5.7 4.7-14.6-1-19.7-5.8-5.1-14.6-4.7-19.8 1.1m161.7-46.3c-5.2 5.7-4.7 14.6 1 19.7 5.8 5.1 14.6 4.7 19.8-1.1 5.2-5.7 4.7-14.6-1-19.7-5.8-5.1-14.6-4.6-19.8 1.1"/><path class="st2" d="M1491 375.2l90.9 81.1 1.2-1.3-90.9-81.2zm40.9 141.7l50.2-44-1.2-1.4-50.2 44zm138.8-41.5l-66-9.5-.3 1.7 66.1 9.5zm-286 4.2c-2.9 3.2-2.7 8.2.6 11.1 3.2 2.9 8.2 2.6 11.1-.6 2.9-3.2 2.7-8.2-.6-11.1-3.2-2.9-8.2-2.6-11.1.6m99.8-27.6c-2.9 3.2-2.7 8.2.6 11.1 3.2 2.9 8.2 2.6 11.1-.6 2.9-3.2 2.7-8.2-.6-11.1-3.2-2.9-8.2-2.6-11.1.6"/><path class="st2" d="M1396.6 480.8l28.2-24.7-.7-.7-28.1 24.7zm123.9 86.9c1.2 4.1 5.6 6.5 9.8 5.3 4.2-1.2 6.6-5.6 5.4-9.7-1.2-4.2-5.6-6.5-9.8-5.3-4.2 1.2-6.6 5.6-5.4 9.7"/><path transform="rotate(-9.677 1525.949 547.55)" class="st2" d="M1525 536.3h1v22.2h-1z"/><path class="st2" d="M1704.7 449.3c1.2-2.9-.1-6.3-3.1-7.6-3-1.2-6.4.2-7.6 3.1-1.2 2.9.1 6.3 3.1 7.6 3 1.3 6.4-.1 7.6-3.1"/><path class="st2" d="M1696.1 451.4l-8.1 14.3.7.3 8-14.3zm-319-212.4c-3.6-2.5-8.5-1.6-11 2s-1.6 8.4 2 10.9 8.5 1.6 11-2c2.4-3.6 1.5-8.5-2-10.9"/><path class="st2" d="M1377.3 250.9l28.1 24.6.6-.8-28.1-24.6zm106.3 205l-37.1-5.3-.1 1 37 5.3zm109.8 59.7c-3.3-2.8-8.3-2.5-11.1.8-2.9 3.3-2.5 8.2.8 11 3.3 2.8 8.3 2.5 11.1-.8 2.8-3.3 2.5-8.2-.8-11"/><path class="st2" d="M1589.5 514.7l4.8-37-1-.1-4.8 37zm-314.9-168.4c5.4-5.5 5.3-14.4-.2-19.7-5.5-5.4-14.4-5.3-19.8.3-5.4 5.5-5.3 14.4.2 19.7 5.5 5.3 14.4 5.2 19.8-.3m72.9-56.2c5.4-5.5 5.3-14.4-.2-19.7-5.5-5.4-14.4-5.3-19.8.3-5.4 5.5-5.3 14.4.2 19.7 5.5 5.3 14.4 5.2 19.8-.3m-163.4 39.5c5.4-5.5 5.3-14.4-.2-19.7-5.5-5.4-14.4-5.3-19.8.3-5.4 5.5-5.3 14.4.2 19.7 5.4 5.3 14.3 5.2 19.8-.3"/><path class="st2" d="M1306.3 376.9l-32.4-31.4-1.2 1.2 32.3 31.5zm20.1-89.9l-51.9 41.9 1.1 1.4 51.9-41.9zM1186 322.7l65.6 12.3.3-1.8-65.6-12.2zm154-86c-1-4.2-5.3-6.7-9.5-5.7s-6.8 5.3-5.8 9.5 5.3 6.7 9.5 5.7c4.2-1.1 6.8-5.3 5.8-9.5"/><path class="st2" d="M1332.2 245.8l2.8 22 1-.1-2.8-22zm-181.3 101.5c-1.4 2.9-.1 6.3 2.8 7.7 2.9 1.4 6.4.1 7.7-2.8 1.4-2.9.1-6.3-2.8-7.7-2.8-1.3-6.3-.1-7.7 2.8"/><path class="st2" d="M1159.6 345.7l8.7-14-.6-.4-8.7 14zm105.3-59.9c3.2 3 8.1 2.8 11.1-.3 3-3.2 2.9-8.1-.3-11.1-3.2-3-8.1-2.8-11.1.3-3 3.2-2.8 8.1.3 11.1"/><path class="st2" d="M1268.8 286.8l-6.4 36.7 1 .2 6.4-36.8zm94.7 102c-2.9 3.2-2.7 8.2.6 11.1 3.2 2.9 8.2 2.6 11.1-.6 2.9-3.2 2.7-8.2-.6-11.1-3.2-2.9-8.2-2.6-11.1.6"/><path class="st2" d="M1362.6 392.7l-37.1-5.3-.1 1 37 5.3zm82.8 47.9c-3.9-6.6-12.5-8.8-19.2-4.9-6.7 3.9-8.9 12.5-5 19.1 3.9 6.6 12.5 8.8 19.2 4.9 6.7-4 8.9-12.5 5-19.1"/><path class="st2" d="M1439.2 436.9l29.3-59.7-1.6-.8-29.3 59.7zm-.2-230.2c4.2 6.4 12.9 8.2 19.4 4 6.5-4.2 8.3-12.9 4.1-19.3-4.2-6.4-12.9-8.2-19.4-4-6.5 4.2-8.3 12.9-4.1 19.3"/><path class="st2" d="M1445.3 210l-26.3 61.2 1.7.7 26.3-61.2zm120.5 138.4c-3.9 6.7-1.6 15.2 5.1 19 6.7 3.8 15.3 1.5 19.2-5.1 3.9-6.7 1.6-15.2-5.1-19-6.8-3.9-15.4-1.6-19.2 5.1"/><path class="st2" d="M1565.6 355.5l-66.7 4.4.1 1.8 66.7-4.4zm-309.1 76.9c-4.2 6.4-2.5 15 4 19.2 6.4 4.2 15.1 2.4 19.3-4 4.2-6.4 2.5-15-4-19.2-6.4-4.2-15.1-2.4-19.3 4"/><path class="st2" d="M1277 429.8l27.8-33-.9-.8-27.8 33zm354.5-142.1c-5.1 5.9-4.4 14.7 1.5 19.7s14.7 4.3 19.8-1.5c5.1-5.9 4.4-14.7-1.5-19.7s-14.8-4.3-19.8 1.5M1520 192.2c-5.1 5.9-4.4 14.7 1.5 19.7s14.7 4.3 19.8-1.5c5.1-5.9 4.4-14.7-1.5-19.7s-14.7-4.3-19.8 1.5"/><path class="st2" d="M1539.5 209.4l92.7 79.1 1.2-1.3-92.7-79.1zm44.1 140.8l49.1-45.1-1.2-1.4-49.1 45.2zm99-95.9c2.2-3.7 1-8.5-2.7-10.7-3.7-2.2-8.6-1-10.8 2.8-2.2 3.7-1 8.5 2.7 10.7 3.8 2.1 8.6.9 10.8-2.8"/><path class="st2" d="M1670.7 255.4l-22.8 29.7.8.6 22.8-29.7zm-102.8-94.6c5.9 5 14.8 4.2 19.8-1.7s4.3-14.7-1.6-19.7-14.8-4.2-19.8 1.7-4.3 14.7 1.6 19.7m61.4 68.1c5.9 5 14.8 4.2 19.8-1.7s4.3-14.7-1.6-19.7-14.8-4.2-19.8 1.7-4.3 14.7 1.6 19.7"/><path class="st2" d="M1539.4 194.5l29.3-34.4-1.4-1.2-29.3 34.4zm91.6 13.2l-45.7-48.3-1.3 1.2 45.6 48.3zm51.4 9.6c4.1-1.3 6.4-5.8 5.1-9.9-1.3-4.1-5.8-6.4-9.9-5-4.1 1.3-6.4 5.8-5.1 9.9 1.3 4.1 5.8 6.4 9.9 5"/><path transform="rotate(-11.478 1662.127 213.19)" class="st2" d="M1650.7 212.5h22.4v1h-22.4z"/><path class="st2" d="M1628 146.6c-2.8 3.4-2.3 8.3 1.1 11 3.4 2.7 8.3 2.2 11.1-1.1 2.8-3.4 2.3-8.3-1.1-11-3.4-2.7-8.4-2.2-11.1 1.1"/><path class="st2" d="M1627.2 150.6l-37.3-3.6-.1 1 37.3 3.6zm-95.8 101.6c-3.4-2.6-8.4-2-11.1 1.4-2.7 3.4-2.1 8.3 1.4 11 3.4 2.6 8.4 2 11.1-1.4 2.6-3.5 2-8.4-1.4-11"/><path class="st2" d="M1527.4 251.5l2.8-37.1-1-.1-2.8 37.2zm191.8 61.8c-6.2 4.7-7.4 13.4-2.7 19.6 4.7 6.1 13.5 7.3 19.7 2.6 6.2-4.7 7.4-13.4 2.7-19.6-4.7-6.2-13.5-7.3-19.7-2.6"/><path class="st2" d="M1716.3 319.8l-63.1-21.5-.6 1.7 63.2 21.5zM1462.5 199l54.3.5v-1.1l-54.3-.6zm-362.3 147.7c2.3-7.4-1.8-15.2-9.2-17.4-7.4-2.3-15.3 1.9-17.6 9.2-2.3 7.4 1.8 15.2 9.2 17.4 7.4 2.3 15.2-1.8 17.6-9.2"/><path transform="rotate(-16.362 1130.437 329.457)" class="st2" d="M1097.1 328.6h66.8v1.8h-66.8z"/><path class="st2" d="M1037.6 293.8c7.7.1 14.2-6 14.3-13.7.2-7.7-6-14.1-13.7-14.2-7.7-.1-14.2 6-14.3 13.7-.1 7.7 6 14.1 13.7 14.2m-54.7-16.7c.1-7.7-6.1-14-13.8-14.1-7.8-.1-14.1 6.1-14.2 13.8-.1 7.7 6.1 14 13.8 14.1 7.7.1 14.1-6.1 14.2-13.8m14-90.6c.1-7.7-6.1-14-13.8-14.1-7.8-.1-14.1 6.1-14.2 13.8-.1 7.7 6.1 14 13.8 14.1 7.7.1 14.1-6.1 14.2-13.8m-91.4 140.6c.1-7.7-6.1-14-13.8-14.1-7.8-.1-14.1 6.1-14.2 13.8-.1 7.7 6.1 14 13.8 14.1 7.7.1 14.1-6.1 14.2-13.8"/><path class="st2" d="M1027.1 277.5l-45.3-.5v1.8l45.3.5zm-47.7-78.7l-8.6 65.8 1.8.3 8.6-65.9zm-77.2 122l56.1-36.1-1-1.5-56.1 36.1zm52.1-167.6c-3.7-2.3-8.5-1.2-10.9 2.4-2.3 3.7-1.3 8.5 2.4 10.8 3.7 2.3 8.5 1.2 10.9-2.4 2.4-3.7 1.3-8.5-2.4-10.8"/><path class="st2" d="M955 165.1l17.3 14 .7-.8-17.3-14zm-61.2 197.5c1 3 4.3 4.7 7.3 3.6 3-1 4.7-4.3 3.7-7.3s-4.3-4.7-7.4-3.6c-3 1-4.7 4.3-3.6 7.3"/><path class="st2" d="M898.9 355.4l-3.3-16-.8.2 3.4 16zm35-115.3c4.3 0 7.9-3.6 7.9-7.9 0-4.3-3.5-7.8-7.9-7.8s-7.9 3.6-7.9 7.9c0 4.3 3.5 7.8 7.9 7.8"/><path class="st2" d="M937.4 238.1l20.9 30.9.8-.5-20.9-30.9zm178.8-32.8c6.2 4.6 15 3.3 19.6-2.9 4.6-6.2 3.3-14.9-2.9-19.5-6.2-4.6-15-3.3-19.6 2.9-4.6 6.2-3.4 14.9 2.9 19.5m65.7 64c6.2 4.6 15 3.3 19.6-2.9 4.6-6.2 3.3-14.9-2.9-19.5-6.2-4.6-15-3.3-19.6 2.9-4.7 6.2-3.4 14.9 2.9 19.5m-61.1-155.5c6.2 4.6 15 3.3 19.6-2.9 4.6-6.2 3.3-14.9-2.9-19.5-6.2-4.6-15-3.3-19.6 2.9-4.6 6.2-3.3 14.9 2.9 19.5"/><path class="st2" d="M1089.9 240.7l27-36.2-1.4-1-27 36.2zm92.2 7.4l-48.6-45.3-1.3 1.3 48.7 45.3zm-54.2-133.3l-3.5 66.3 1.8.1 3.5-66.3zm106.2 139.6c4-1.6 6-6.2 4.4-10.2-1.6-4-6.2-6-10.2-4.4-4 1.6-6 6.2-4.4 10.2 1.6 4.1 6.2 6 10.2 4.4"/><path transform="rotate(-15.123 1213.48 251.427)" class="st2" d="M1202.1 250.9h22.4v1h-22.4z"/><path class="st2" d="M1098.8 83.7c-3.1-.9-6.3.8-7.3 3.8s.7 6.3 3.8 7.2c3.1.9 6.3-.8 7.3-3.8 1-3.1-.8-6.3-3.8-7.2"/><path class="st2" d="M1101.6 92l15.1 6.6.3-.7-15.1-6.6zm73.6 95.3c-2.5 3.5-1.7 8.4 1.8 10.9s8.5 1.7 11-1.8 1.7-8.4-1.8-10.9-8.4-1.7-11 1.8"/><path class="st2" d="M1174.7 191.3l-37.4-1.2-.1 1 37.5 1.2zm-97.7 55.5c.1 4.3 3.7 7.7 8.1 7.6 4.3-.1 7.8-3.7 7.7-8.1-.1-4.3-3.7-7.7-8.1-7.6-4.4.2-7.8 3.8-7.7 8.1"/><path class="st2" d="M1079 250.3l-30.6 21.5.6.9 30.6-21.6zm.2 83.3l-33.8-42-1 .8 33.9 41.9zm141.1 183.6c-4.3-2.5-9.9-1.1-12.4 3.2-2.5 4.3-1.1 9.8 3.2 12.4 4.3 2.5 9.9 1.1 12.4-3.2 2.5-4.4 1.1-9.9-3.2-12.4m-46.7-36.7c-4.3-2.5-9.9-1.1-12.4 3.2-2.5 4.3-1.1 9.8 3.2 12.4 4.3 2.5 9.9 1.1 12.4-3.2 2.5-4.4 1.1-9.9-3.2-12.4m50 95.8c-4.3-2.5-9.9-1.1-12.4 3.2-2.5 4.3-1.1 9.8 3.2 12.4 4.3 2.5 9.9 1.1 12.4-3.2 2.5-4.3 1.1-9.8-3.2-12.4"/><path class="st2" d="M1260.1 449.8l-40.2 67.9 1 .6 40.2-67.9zm-85.2 44.4l34.4 25.8.7-1-34.4-25.8zm44.1 82l-2.4-42.9-1.1.1 2.3 42.9zm-39-179.8c-2.4-1.4-5.6-.6-7 1.8-1.4 2.4-.6 5.5 1.8 6.9 2.4 1.4 5.6.6 7-1.8 1.4-2.3.6-5.4-1.8-6.9m30.3 59.4c-2.4-1.4-5.6-.6-7 1.8-1.4 2.4-.6 5.5 1.8 6.9 2.4 1.4 5.6.6 7-1.8 1.4-2.4.6-5.5-1.8-6.9"/><path class="st2" d="M1180.7 404.1l19.4 14.5.4-.5-19.4-14.5zm-39.7 89.5c-2.5 1.3-3.5 4.4-2.1 6.9 1.3 2.5 4.4 3.4 6.9 2.1 2.5-1.3 3.5-4.4 2.1-6.9-1.3-2.5-4.4-3.4-6.9-2.1"/><path transform="rotate(-21.161 1154.69 494.133)" class="st2" d="M1147.3 493.8h14.5v.7h-14.5z"/><path class="st2" d="M1239.9 594.2c2 .4 4-.9 4.4-2.9.4-2-.9-4-3-4.4-2-.4-4 .9-4.4 2.9-.4 2.1.9 4 3 4.4"/><path class="st2" d="M1237.5 589.1l-10.2-3.3-.1.5 10.1 3.2zm-29.8-133.4l-1.3-24.1h-.7l1.3 24.1zm-24.2 77c1.4-2.4.5-5.5-1.9-6.9-2.5-1.4-5.6-.5-7 1.9-1.4 2.4-.5 5.5 1.9 6.9 2.5 1.4 5.6.6 7-1.9"/><path class="st2" d="M1183.5 530.2l24.2-1.8v-.7l-24.2 1.8zm29.1-100.6c3.7-3.3 4-9 .7-12.8-3.4-3.7-9.1-4-12.8-.7-3.7 3.3-4.1 9-.7 12.8 3.3 3.7 9.1 4 12.8.7"/><path class="st2" d="M1214.1 425.2l41.9 10.7.3-1.2-41.9-10.6zm72.5 68.2c-4.8-1.6-9.9 1-11.5 5.7s1 9.8 5.7 11.4c4.8 1.6 9.9-1 11.5-5.7 1.7-4.7-.9-9.8-5.7-11.4"/><path transform="rotate(-15.138 1275.745 473.527)" class="st2" d="M1275.3 452.2h1.2v42.9h-1.2z"/><path class="st2" d="M1273.5 199.5c3-7.1-.4-15.2-7.5-18.1-7.1-2.9-15.3.4-18.3 7.5s.4 15.2 7.5 18.1c7.1 2.9 15.3-.4 18.3-7.5"/><path class="st2" d="M1253.8 205.8l-21.1 37.6 1 .6 21.1-37.6zm39.4-96.2c4.7 1.7 9.9-.8 11.6-5.5 1.7-4.7-.7-9.9-5.5-11.5-4.7-1.7-9.9.8-11.6 5.5-1.7 4.6.8 9.8 5.5 11.5M1346 137c4.7 1.7 9.9-.8 11.6-5.5 1.7-4.7-.7-9.9-5.5-11.5-4.7-1.7-9.9.8-11.6 5.5-1.7 4.6.8 9.8 5.5 11.5"/><path class="st2" d="M1266.7 183.1l26.8-74.2-1.1-.3-26.8 74.1zm75.5-59.3l-38.7-19-.6 1 38.8 19zm13.2 96.9c2.6.9 5.6-.4 6.5-3.1 1-2.6-.4-5.5-3.1-6.5-2.6-.9-5.6.4-6.5 3.1-.9 2.6.4 5.5 3.1 6.5m-40.9-52.7c2.6.9 5.6-.4 6.5-3.1 1-2.6-.4-5.5-3.1-6.5-2.6-.9-5.6.4-6.5 3.1-.9 2.7.5 5.6 3.1 6.5"/><path class="st2" d="M1353.2 213.3l-21.7-10.7-.3.6 21.7 10.6zm22.4-95.3c2.2-1.7 2.6-4.9.8-7.1-1.8-2.2-5-2.5-7.2-.8s-2.6 4.9-.8 7.1c1.8 2.2 5 2.6 7.2.8"/><path class="st2" d="M1368.1 116l-12.3 7.6.4.6 12.3-7.7z"/><path transform="rotate(-13.88 1320.521 179.355)" class="st2" d="M1320 167.2h.7v24.1h-.7z"/><path class="st2" d="M1326.5 87.5c-.9 2.7.5 5.5 3.2 6.4 2.7.9 5.6-.5 6.5-3.2.9-2.7-.5-5.5-3.2-6.4-2.7-.9-5.6.5-6.5 3.2"/><path transform="rotate(-14.887 1315.166 93.471)" class="st2" d="M1303.1 93.1h24.3v.7h-24.3z"/><path class="st2" d="M1772.4 401.9c-4.3 2.6-5.7 8.1-3.1 12.4 2.6 4.3 8.2 5.6 12.5 3.1 4.3-2.6 5.7-8.1 3.1-12.4-2.6-4.3-8.2-5.6-12.5-3.1m-54.9 23.3c-4.3 2.6-5.7 8.1-3.1 12.4 2.6 4.3 8.2 5.6 12.5 3.1 4.3-2.6 5.7-8.1 3.1-12.4-2.7-4.3-8.2-5.6-12.5-3.1m108.7 2c-4.3 2.6-5.7 8.1-3.1 12.4 2.6 4.3 8.1 5.6 12.5 3.1 4.3-2.6 5.7-8.1 3.1-12.4-2.6-4.3-8.2-5.7-12.5-3.1"/><path class="st2" d="M1732 335.1l40.7 67.5 1-.6-40.7-67.5z"/><path transform="rotate(-24.292 1749.414 421.182)" class="st2" d="M1728 420.6h43.2v1.2H1728z"/><path class="st2" d="M1823.9 431.2l-39-18.4-.5 1 39 18.4zm-110.5 28.7c0 2.8 2.2 5.1 5 5.1s5.1-2.2 5.2-5c0-2.8-2.2-5.1-5-5.1-2.9 0-5.2 2.2-5.2 5"/><path class="st2" d="M1719.7 455.5l1.9-14.3h-.6l-1.9 14.2zm130.2-34c1.3-1.6 1.1-3.9-.5-5.3-1.6-1.3-4-1.1-5.3.5-1.3 1.6-1.1 3.9.5 5.3 1.6 1.3 3.9 1.1 5.3-.5"/><path class="st2" d="M1844.2 421.1l-7.8 7.3.3.4 7.8-7.3zm-75.8 20.3c-1.5-2.4-4.6-3.1-7-1.6-2.4 1.5-3.1 4.6-1.6 7 1.5 2.4 4.6 3.1 7 1.6 2.4-1.5 3.1-4.6 1.6-7"/><path class="st2" d="M1766.2 440.2l10-22-.6-.3-10 22zm-861.1-7.4c-6.3-4.5-15-3.1-19.6 3.1-4.6 6.2-3.2 15 3.1 19.5 6.3 4.5 15 3.1 19.6-3.1 4.6-6.2 3.2-15-3.1-19.5"/><path class="st2" d="M898 431.9l2.8-66.3-1.8-.1-2.8 66.4zm-162.1-86.7c1.3-7.6-3.9-14.8-11.6-16-7.6-1.2-14.9 4-16.1 11.6-1.3 7.6 3.9 14.8 11.6 16 7.6 1.2 14.8-4 16.1-11.6M696 425c2.6-7.3-1.1-15.2-8.4-17.8-7.3-2.6-15.3 1.2-18 8.4-2.6 7.2 1.1 15.2 8.4 17.8 7.3 2.6 15.4-1.1 18-8.4m138.5 49.9c2.6-7.3-1.1-15.2-8.4-17.8-7.3-2.6-15.3 1.2-18 8.4-2.6 7.2 1.1 15.2 8.4 17.8 7.3 2.6 15.3-1.2 18-8.4"/><path class="st2" d="M810.1 465.7L695 424.5l-.6 1.7 115.1 41.2zm-91.6-115.9l-29.8 59.5 1.6.8 29.9-59.5zm-58.4 124.5c-.8 4.3 2.1 8.3 6.4 9 4.3.7 8.4-2.1 9.1-6.4.8-4.3-2.1-8.3-6.4-9-4.3-.7-8.4 2.1-9.1 6.4"/><path class="st2" d="M670.9 469l10.7-35.7-1-.3-10.7 35.8zm129.9 52.1c-7.3-2.5-15.3 1.3-17.9 8.5-2.6 7.3 1.2 15.2 8.5 17.8 7.3 2.5 15.3-1.3 17.9-8.5 2.7-7.2-1.2-15.2-8.5-17.8M719 479.2c-7.3-2.6-15.3 1.3-17.9 8.5-2.6 7.3 1.2 15.2 8.5 17.8 7.3 2.5 15.3-1.3 17.9-8.5 2.7-7.3-1.1-15.2-8.5-17.8m1088.8-154.9c-4.9 6-4 14.8 2 19.6 6 4.8 14.8 3.9 19.7-2.1 4.9-6 4-14.8-2-19.6-6-4.8-14.8-3.9-19.7 2.1"/><path class="st2" d="M815.5 479.6l-15.2 42.5 1.7.6 15.2-42.5zm-90.4 20l59.9 29 .8-1.6-59.9-29zm1081.4-168.3l-66.5-6.2-.2 1.8 66.5 6.2zm-1133 177.4c-3.4 2.7-3.9 7.6-1.2 11 2.7 3.4 7.7 3.9 11.1 1.2 3.4-2.7 3.9-7.6 1.2-11-2.8-3.4-7.7-3.9-11.1-1.2"/><path class="st2" d="M685 511.8l19-11.8-.6-.9-18.9 11.9zm1154.1-208.2c1.1-3-.5-6.3-3.5-7.4-3-1.1-6.4.5-7.4 3.5-1.1 3 .5 6.3 3.5 7.4 3 1.1 6.3-.4 7.4-3.5"/><path class="st2" d="M1830.6 306.1l-7.4 14.7.7.3 7.4-14.7zm-1081 249.4c1.4-4.1-.8-8.5-5-9.9-4.1-1.4-8.6.9-10 5-1.4 4.1.8 8.5 5 9.9 4.2 1.4 8.7-.9 10-5"/><path transform="rotate(-15.188 766.768 546.137)" class="st2" d="M748.1 545.7h37.5v1h-37.5z"/><path class="st2" d="M802.4 422.9c4.2 1.3 8.6-1.1 9.8-5.2 1.3-4.1-1-8.5-5.2-9.8-4.2-1.3-8.6 1.1-9.8 5.2-1.3 4.2 1.1 8.6 5.2 9.8"/><path transform="rotate(-16.605 812.037 439.744)" class="st2" d="M811.7 421.2h1v37.2h-1z"/><path class="st2" d="M604.7 432.1c4.1-6.6 2.1-15.1-4.5-19.2s-15.2-2-19.3 4.5c-4.1 6.6-2.1 15.2 4.5 19.2 6.6 4.1 15.2 2.1 19.3-4.5"/><path class="st2" d="M605.1 425l66.8-2.2-.1-1.8-66.7 2.2zm280.8 23.4l-51 18.6.4 1 51-18.6zm1015.6-83.3c-1.6 4.7.9 9.8 5.7 11.4 4.8 1.6 9.9-1 11.5-5.7 1.6-4.7-.9-9.8-5.7-11.4-4.7-1.6-9.9 1-11.5 5.7m-26.7 53.1c-1.6 4.7.9 9.8 5.7 11.4 4.8 1.6 9.9-1 11.5-5.7 1.6-4.7-.9-9.8-5.7-11.4-4.7-1.6-9.9 1-11.5 5.7"/><path class="st2" d="M1827.1 340.4l75.1 25 .3-1.1-75-25zm60.9 73.7l18.5-38.9-1.1-.5-18.4 38.9zm6.3 33.1c1.8 2.2 5 2.4 7.2.7 2.2-1.8 2.5-5 .7-7.1-1.8-2.2-5-2.4-7.2-.7-2.1 1.7-2.5 4.9-.7 7.1"/><path class="st2" d="M1896.3 439.7l-7.9-12-.5.3 7.8 12.1zm28-42c-2.7-.8-5.6.6-6.4 3.3-.9 2.7.6 5.5 3.3 6.4 2.7.8 5.6-.6 6.4-3.3.8-2.8-.6-5.6-3.3-6.4"/><path transform="rotate(-16.023 1918.313 386.687)" class="st2" d="M1917.8 374.6h.7v24.1h-.7z"/><path class="st2" d="M801.4 335.8c-.5-5-5-8.5-10-8s-8.6 5-8.1 10 5 8.5 10 8c5-.6 8.6-5 8.1-10m2-59.3c-.5-5-5-8.5-10-8s-8.6 5-8.1 10 5 8.5 10 8 8.6-5 8.1-10"/><path class="st2" d="M879.5 327.3l-78.8 8.5.1 1.1 78.8-8.5zm-86.4-41.5l-.5 42.9h1.2l.4-42.9zm-19.7-27.4c-2.5-1.2-5.6-.1-6.8 2.4-1.2 2.5-.2 5.6 2.4 6.8 2.5 1.2 5.6.1 6.8-2.4 1.2-2.6.1-5.6-2.4-6.8"/><path class="st2" d="M774.8 266l12.2 7.6.3-.5-12.2-7.7zm-7.8 49.8c2.8-.4 4.8-2.9 4.4-5.7-.3-2.8-2.9-4.7-5.7-4.4-2.8.4-4.8 2.9-4.4 5.7.4 2.8 2.9 4.7 5.7 4.4"/><path class="st2" d="M769.1 314.3l15.8 18.2.5-.4-15.8-18.3zm548-120.1c-3 4-2.3 9.6 1.7 12.7 4 3 9.7 2.2 12.7-1.7 3-4 2.3-9.6-1.7-12.7-3.9-3.1-9.6-2.3-12.7 1.7"/><path class="st2" d="M1316.4 198.7l-43.1-2.7-.1 1.2 43.2 2.7zm-84-53.5c5 .7 9.6-2.8 10.2-7.7.7-4.9-2.8-9.5-7.8-10.2-5-.7-9.6 2.8-10.2 7.7-.6 5 2.8 9.5 7.8 10.2"/><path transform="rotate(-25.924 1246.63 162.578)" class="st2" d="M1246.1 141.1h1.2v43h-1.2z"/><path class="st1" d="M2054.7 303.2c-5.5 5.4-14.3 5.4-19.7-.1-5.4-5.5-5.4-14.3 0-19.7 5.5-5.4 14.3-5.4 19.7.1 5.5 5.4 5.5 14.2 0 19.7m87.2 81.7c-1.1.6-2.2 1.4-3.2 2.4-5.5 5.4-5.5 14.2 0 19.7 1 1 2.1 1.8 3.2 2.4v-24.5zm-143.5 1.6c-8.4 8.3-22 8.3-30.3-.2-8.4-8.4-8.3-22 .1-30.3s22-8.3 30.3.2c8.3 8.4 8.3 22-.1 30.3"/><path class="st1" d="M2139.8 389l-85.9-86.5 1.2-1.3 85.9 86.5z"/><path transform="rotate(-51.386 2017.249 329.565)" class="st1" d="M1984.2 328.7h66.3v1.8h-66.3z"/><path class="st1" d="M1881.2 466.7c5.2 5.7 4.7 14.6-1 19.7s-14.6 4.7-19.7-1.1c-5.2-5.7-4.7-14.6 1-19.7 5.7-5.2 14.6-4.7 19.7 1.1m70.2 59.2c5.2 5.7 4.7 14.6-1 19.7s-14.6 4.7-19.7-1.1c-5.2-5.7-4.7-14.6 1-19.7 5.7-5.2 14.5-4.7 19.7 1.1m-160.9-46.3c5.2 5.7 4.7 14.6-1 19.7s-14.6 4.7-19.7-1.1c-5.2-5.7-4.7-14.6 1-19.7s14.6-4.6 19.7 1.1"/><path transform="rotate(-41.911 1924.983 426.246)" class="st1" d="M1864.4 425.3h121.5v1.8h-121.5z"/><path transform="rotate(-48.547 1905.81 505.405)" class="st1" d="M1905 472.1h1.8v66.5h-1.8z"/><path class="st1" d="M1792.2 486.5l65.7-9.4.3 1.7-65.8 9.5zm284.5 4.3c2.9 3.2 2.6 8.2-.6 11.1-3.2 2.9-8.2 2.6-11.1-.6-2.9-3.2-2.6-8.2.6-11.1 3.2-2.9 8.2-2.6 11.1.6m-99.3-27.6c2.9 3.2 2.6 8.2-.6 11.1-3.2 2.9-8.2 2.6-11.1-.6-2.9-3.2-2.6-8.2.6-11.1 3.2-2.9 8.2-2.6 11.1.6"/><path transform="rotate(-48.547 2051.102 479.294)" class="st1" d="M2050.6 460.6h1v37.3h-1z"/><path class="st1" d="M1941.6 578.9c-1.2 4.1-5.6 6.5-9.7 5.3-4.2-1.2-6.5-5.6-5.3-9.7 1.2-4.2 5.6-6.5 9.7-5.3 4.1 1.2 6.5 5.6 5.3 9.7"/><path class="st1" d="M1934.3 569.5l3.7-21.9 1 .2-3.7 21.9zm-175.9-109c-1.2-2.9.1-6.3 3.1-7.6 2.9-1.2 6.3.2 7.6 3.1 1.2 2.9-.1 6.3-3.1 7.6-3 1.3-6.4-.1-7.6-3.1"/><path transform="rotate(-29.378 1770.61 469.835)" class="st1" d="M1770.3 461.7h.7v16.4h-.7z"/><path class="st1" d="M2084.3 250.2c3.6-2.5 8.4-1.6 10.9 2s1.6 8.4-1.9 10.9c-3.6 2.5-8.4 1.6-10.9-2-2.6-3.6-1.7-8.5 1.9-10.9"/><path transform="rotate(-41.351 2069.634 273.999)" class="st1" d="M2051.1 273.5h37.2v1h-37.2z"/><path class="st1" d="M1978.3 467.1l36.9-5.4.1 1-36.8 5.4zm-109.2 59.6c3.3-2.8 8.2-2.5 11.1.8 2.8 3.3 2.5 8.2-.8 11-3.3 2.8-8.2 2.5-11.1-.8-2.8-3.2-2.5-8.1.8-11"/><path class="st1" d="M1873 525.9l-4.8-37 1-.1 4.8 37zm240.6-224.6c-5.4-5.5-5.3-14.4.2-19.7 5.5-5.4 14.3-5.3 19.7.3 5.4 5.5 5.3 14.4-.2 19.7-5.4 5.3-14.3 5.2-19.7-.3"/><path class="st1" d="M2141.9 304l-7.2-5.8-1.2 1.4 8.4 6.8zm-20.7-56.1c1-4.2 5.3-6.7 9.5-5.7s6.8 5.3 5.7 9.5c-1 4.2-5.3 6.7-9.5 5.7-4.2-1.1-6.8-5.3-5.7-9.5"/><path class="st1" d="M2128.9 257l-2.8 22-1-.1 2.8-22.1zm-31.2 143c2.9 3.2 2.6 8.2-.6 11.1-3.2 2.9-8.2 2.6-11.1-.6-2.9-3.2-2.6-8.2.6-11.1 3.3-2.9 8.2-2.7 11.1.6"/><path class="st1" d="M2098.7 403.9l36.8-5.4.2 1-36.9 5.4zm-82.4 47.8c3.9-6.6 12.4-8.8 19.1-4.9 6.7 3.9 8.9 12.5 5 19.1-3.9 6.6-12.5 8.8-19.1 4.9-6.7-3.9-8.9-12.4-5-19.1"/><path class="st1" d="M2022.4 448.1l-29.1-59.8 1.6-.7 29.1 59.7zm.2-230.2c-4.2 6.4-12.9 8.2-19.3 4-6.5-4.2-8.3-12.9-4-19.3 4.2-6.4 12.9-8.2 19.3-4 6.5 4.2 8.3 12.9 4 19.3"/><path class="st1" d="M2016.4 221.2l26.1 61.1-1.6.7-26.2-61.1zm-119.8 138.4c3.9 6.7 1.6 15.2-5.1 19-6.7 3.8-15.2 1.5-19.1-5.1-3.9-6.7-1.6-15.2 5.1-19 6.7-3.9 15.2-1.6 19.1 5.1"/><path class="st1" d="M1896.8 366.7l66.2 4.3-.1 1.8-66.3-4.3zm-65.6-67.8c5 5.9 4.4 14.7-1.5 19.7-5.8 5-14.7 4.3-19.7-1.5-5-5.9-4.4-14.7 1.5-19.7s14.7-4.4 19.7 1.5m110.9-95.5c5 5.9 4.4 14.7-1.5 19.7-5.8 5-14.7 4.3-19.7-1.5-5-5.9-4.4-14.7 1.5-19.7s14.7-4.3 19.7 1.5"/><path class="st1" d="M1922.7 220.6l-92.2 79.1-1.2-1.4 92.3-79z"/><path transform="rotate(-47.258 1854.96 338.197)" class="st1" d="M1854.1 304.9h1.8v66.5h-1.8z"/><path class="st1" d="M1780.3 265.5c-2.2-3.7-1-8.5 2.7-10.7 3.7-2.2 8.5-1 10.7 2.8 2.2 3.7 1 8.5-2.7 10.7-3.6 2.1-8.4.9-10.7-2.8"/><path transform="rotate(-37.288 1803.19 281.752)" class="st1" d="M1802.6 263.1h1v37.3h-1z"/><path class="st1" d="M1894.5 172c-5.9 5-14.7 4.2-19.7-1.7s-4.3-14.7 1.6-19.7 14.7-4.2 19.7 1.7 4.2 14.7-1.6 19.7m-61.1 68.1c-5.9 5-14.7 4.2-19.7-1.7s-4.3-14.7 1.6-19.7 14.7-4.2 19.7 1.7 4.3 14.7-1.6 19.7"/><path class="st1" d="M1922.8 205.7l-29.1-34.5 1.3-1.1 29.2 34.4z"/><path transform="rotate(-46.791 1855.012 195.296)" class="st1" d="M1821.9 194.4h66.3v1.8h-66.3z"/><path class="st1" d="M1780.6 228.5c-4.1-1.3-6.4-5.8-5-9.9 1.3-4.1 5.8-6.4 9.9-5 4.1 1.3 6.4 5.8 5 9.9-1.4 4.1-5.8 6.3-9.9 5"/><path class="st1" d="M1790.2 221.5l21.8 4.4-.2 1-21.8-4.4zm44.5-63.7c2.7 3.4 2.2 8.3-1.1 11-3.3 2.7-8.3 2.2-11-1.1-2.7-3.4-2.2-8.3 1.1-11 3.3-2.8 8.3-2.3 11 1.1"/><path class="st1" d="M1835.4 161.7l37.2-3.5.1 1-37.2 3.5zm95.4 101.7c3.4-2.6 8.3-2 11 1.4 2.7 3.4 2 8.3-1.4 11-3.4 2.6-8.3 2-11-1.4-2.6-3.5-2-8.4 1.4-11"/><path class="st1" d="M1934.7 262.7l-2.8-37.1 1.1-.1 2.7 37.2zm-190.8 61.7c6.1 4.7 7.3 13.4 2.6 19.6-4.7 6.1-13.4 7.3-19.6 2.6-6.1-4.7-7.3-13.4-2.6-19.6 4.7-6.1 13.5-7.3 19.6-2.6"/><path class="st1" d="M1746.8 330.9l62.8-21.4.6 1.7-62.8 21.4zm252.5-120.8l-54 .6v-1.2l53.9-.5zm115.9-61.9c-4.7 1.7-9.9-.8-11.6-5.5-1.7-4.7.7-9.9 5.4-11.5 4.7-1.7 9.9.8 11.6 5.5 1.7 4.6-.7 9.8-5.4 11.5"/><path class="st1" d="M2141.9 123.7L2119 135l.5 1 22.4-11zm-36.1 108.1c-2.6.9-5.5-.4-6.5-3.1-1-2.6.4-5.5 3-6.5 2.6-.9 5.5.4 6.5 3.1s-.3 5.6-3 6.5m36.1-61.6c-1.9 1.3-2.7 3.7-1.9 5.9.4 1 1.1 1.9 1.9 2.5v-8.4z"/><path class="st1" d="M2108 224.4l21.6-10.6.3.6-21.6 10.6zm-22.3-95.2c-2.2-1.7-2.6-4.9-.8-7.1 1.7-2.2 4.9-2.5 7.1-.8 2.2 1.7 2.6 4.9.8 7.1-1.7 2.2-4.9 2.6-7.1.8"/><path transform="rotate(-58.054 2099.235 131.245)" class="st1" d="M2098.8 124h.7v14.4h-.7z"/><path class="st1" d="M2141.9 184.2l-4.4 17.8.6.2 3.8-15.2zm-7.3-85.5c.9 2.7-.5 5.5-3.2 6.4-2.7.9-5.5-.5-6.4-3.2-.9-2.7.5-5.5 3.2-6.4 2.6-.9 5.5.5 6.4 3.2"/><path class="st1" d="M2141.9 103.3l-7.7-2.1-.2.6 7.9 2.1zm-450.8 309.8c4.3 2.6 5.7 8.1 3.1 12.4-2.6 4.3-8.1 5.6-12.4 3.1-4.3-2.6-5.7-8.1-3.1-12.4 2.5-4.3 8.1-5.7 12.4-3.1m54.6 23.3c4.3 2.6 5.7 8.1 3.1 12.4-2.6 4.3-8.1 5.6-12.4 3.1-4.3-2.6-5.7-8.1-3.1-12.4 2.6-4.3 8.1-5.7 12.4-3.1m-108.2 2c4.3 2.6 5.7 8.1 3.1 12.4-2.6 4.3-8.1 5.6-12.4 3.1-4.3-2.6-5.7-8.1-3.1-12.4 2.6-4.3 8.1-5.7 12.4-3.1"/><path transform="rotate(-59.075 1710.6 379.735)" class="st1" d="M1671.2 379.1h78.6v1.2h-78.6z"/><path transform="rotate(-65.593 1713.81 432.387)" class="st1" d="M1713.1 410.9h1.2v43h-1.2z"/><path transform="rotate(-25.338 1659.616 433.618)" class="st1" d="M1638 433.1h42.9v1.2H1638z"/><path class="st1" d="M1749.8 471.1c0 2.8-2.2 5.1-5 5.1s-5.1-2.2-5.1-5 2.2-5.1 5-5.1c2.7 0 5 2.2 5.1 5"/><path class="st1" d="M1743.4 466.7l-1.8-14.3.6-.1 1.9 14.3zm-129.4-34c-1.3-1.6-1.1-3.9.5-5.3 1.6-1.3 3.9-1.1 5.3.5 1.3 1.6 1.1 3.9-.5 5.3-1.6 1.3-4 1.1-5.3-.5"/><path class="st1" d="M1619.7 432.3l7.7 7.3-.3.4-7.7-7.4zm75.3 20.3c1.5-2.4 4.6-3.1 7-1.6 2.4 1.5 3.1 4.6 1.6 7-1.5 2.4-4.6 3.1-7 1.6s-3.1-4.6-1.6-7"/><path class="st1" d="M1697.3 451.4l-10-22 .5-.3 10.1 22zm-41.4-115.9c4.9 6 4 14.8-2 19.6-6 4.8-14.8 3.9-19.6-2.1-4.9-6-4-14.8 2-19.6 5.9-4.8 14.7-3.9 19.6 2.1"/><path class="st1" d="M1657.2 342.5l66.1-6.2.2 1.8-66.1 6.2zm-32.5-27.7c-1.1-3 .5-6.3 3.5-7.4 3-1.1 6.3.5 7.4 3.5 1.1 3-.5 6.3-3.5 7.4-3 1.1-6.3-.5-7.4-3.5"/><path class="st1" d="M1633.2 317.3l7.3 14.7-.7.3-7.3-14.7zm-70.6 59c1.6 4.7-.9 9.8-5.7 11.4-4.7 1.6-9.9-1-11.5-5.7-1.6-4.7.9-9.8 5.7-11.4 4.8-1.6 9.9 1 11.5 5.7m26.6 53.1c1.6 4.7-.9 9.8-5.7 11.4-4.7 1.6-9.9-1-11.5-5.7-1.6-4.7.9-9.8 5.7-11.4 4.8-1.6 9.9 1 11.5 5.7"/><path class="st1" d="M1636.6 351.6l-74.6 25-.4-1.1 74.6-25zm-60.6 73.7l-18.3-38.9 1-.5 18.4 38.9zm-6.2 33.1c-1.8 2.2-5 2.4-7.1.7-2.2-1.8-2.5-5-.7-7.1 1.8-2.2 5-2.4 7.1-.7 2.1 1.7 2.5 4.9.7 7.1"/><path class="st1" d="M1567.8 450.9l7.8-12 .6.3-7.8 12.1zm-27.8-42.1c2.7-.8 5.5.6 6.4 3.3.9 2.7-.6 5.5-3.3 6.4-2.7.8-5.5-.6-6.4-3.3-.9-2.7.6-5.5 3.3-6.4"/><path class="st1" d="M1542.5 409.3l6.6-23.1.7.1-6.6 23.2zm599.4-205.9c-3.1-2.2-7.5-2.3-10.7.2-4 3-4.7 8.7-1.7 12.7 3 3.9 8.4 4.7 12.4 1.9v-14.8z"/><path class="st3" d="M1725.1 356.6c5.7-7.3 16.3-8.7 23.7-2.9 7.4 5.7 8.7 16.3 2.9 23.7-5.7 7.4-16.3 8.7-23.7 2.9-7.3-5.7-8.6-16.3-2.9-23.7m-140-108.8c5.7-7.4 16.3-8.7 23.7-2.9 7.4 5.7 8.7 16.3 2.9 23.7-5.7 7.4-16.3 8.7-23.7 2.9-7.4-5.7-8.7-16.3-2.9-23.7m195 0c8.8-11.3 25.1-13.3 36.4-4.5 11.3 8.8 13.3 25.1 4.5 36.4-8.8 11.3-25.1 13.3-36.4 4.5-11.3-8.8-13.3-25.1-4.5-36.4"/><path transform="rotate(-52.048 1667.434 312.917)" class="st3" d="M1666.4 239.2h2.2v147.2h-2.2z"/><path transform="rotate(-58.648 1765.907 319.074)" class="st3" d="M1725.8 318h80.3v2.2h-80.3z"/><path class="st3" d="M1908.5 133.4c-7.1-6.1-7.8-16.8-1.8-23.8 6.1-7.1 16.8-7.8 23.8-1.8 7.1 6.1 7.8 16.8 1.8 23.8-6.1 7.1-16.7 7.9-23.8 1.8m-93.1-60.2c-7.1-6.1-7.8-16.8-1.8-23.8 6.1-7.1 16.8-7.8 23.8-1.8 7.1 6.1 7.8 16.8 1.7 23.8-6 7.1-16.6 7.9-23.7 1.8m199.9 30.6c-7.1-6.1-7.8-16.8-1.8-23.8 6.1-7.1 16.8-7.8 23.8-1.8 7.1 6.1 7.8 16.8 1.8 23.8-6.1 7.1-16.7 7.9-23.8 1.8"/><path transform="rotate(-49.202 1862.074 188.712)" class="st3" d="M1788.3 187.6h147.2v2.2h-147.2z"/><path transform="rotate(-55.805 1873.178 90.71)" class="st3" d="M1872 50.6h2.2v80.3h-2.2z"/><path transform="rotate(-15.58 1973 105.488)" class="st3" d="M1933.1 104.4h80.3v2.2h-80.3z"/><path class="st3" d="M1670.5 134.7c-4-3.4-4.4-9.4-1-13.4 3.4-4 9.4-4.4 13.4-1 4 3.4 4.4 9.4 1 13.4-3.5 4-9.5 4.5-13.4 1m123.2 17.8c-4-3.4-4.4-9.4-1-13.4 3.4-4 9.4-4.4 13.4-1 4 3.4 4.4 9.4 1 13.4-3.5 4-9.4 4.4-13.4 1"/><path transform="rotate(-55.805 1702.89 144.587)" class="st3" d="M1702.2 122h1.2v45.1h-1.2z"/><path class="st3" d="M1819.1 8c.8-5.2 5.7-8.7 10.8-7.9 5.2.8 8.7 5.7 7.9 10.8-.8 5.2-5.7 8.7-10.8 7.9-5.2-.8-8.7-5.6-7.9-10.8"/><path transform="matrix(.04272 -.9991 .9991 .04272 1718.532 1856.742)" class="st3" d="M1814.7 31h26.9v1.2h-26.9z"/><path class="st3" d="M2056.8 121.7c1.9 3.3.8 7.6-2.6 9.6-3.3 1.9-7.6.8-9.5-2.6-1.9-3.3-.8-7.6 2.6-9.6 3.3-1.9 7.5-.7 9.5 2.6"/><path transform="rotate(-36.579 2040.669 112.413)" class="st3" d="M2040.2 102.5h.9v19.8h-.9z"/><path class="st3" d="M1697.7 424.8c-3.9 3.5-9.9 3.2-13.4-.7-3.5-3.9-3.2-9.9.7-13.4 3.9-3.5 9.9-3.2 13.4.7 3.5 3.9 3.2 9.9-.7 13.4"/><path transform="rotate(-48.645 1711.56 393.954)" class="st3" d="M1688.9 393.3h45.1v1.2h-45.1z"/><path transform="rotate(-15.58 1769.824 153.437)" class="st3" d="M1747.6 152.8h45.1v1.2h-45.1z"/><path class="st3" d="M1914 59.4c-3.5 3.9-9.5 4.2-13.4.8-3.9-3.5-4.2-9.5-.7-13.4 3.5-3.9 9.5-4.2 13.4-.8 3.9 3.5 4.2 9.5.7 13.4"/><path transform="rotate(-14.579 1914.305 82.844)" class="st3" d="M1913.9 60.4h1.2v45.1h-1.2z"/><path class="st3" d="M1559.2 311.8c7.3 5.8 8.5 16.4 2.7 23.7-5.8 7.3-16.4 8.5-23.7 2.7-7.3-5.8-8.5-16.4-2.7-23.7 5.8-7.3 16.4-8.5 23.7-2.7m95.5 56.2c7.3 5.8 8.5 16.4 2.7 23.7-5.8 7.3-16.4 8.5-23.7 2.7-7.3-5.8-8.5-16.4-2.7-23.7 5.8-7.3 16.4-8.5 23.7-2.7m-201-22.2c7.3 5.8 8.5 16.4 2.7 23.7-5.8 7.3-16.4 8.5-23.7 2.7-7.3-5.8-8.5-16.4-2.7-23.7 5.8-7.3 16.4-8.5 23.7-2.7"/><path transform="rotate(-51.603 1574.665 290.887)" class="st3" d="M1547.4 289.8h54.5v2.2h-54.5z"/><path transform="rotate(-58.204 1596.516 352.895)" class="st3" d="M1595.3 312.7h2.2V393h-2.2z"/><path transform="rotate(-17.973 1495.876 342.332)" class="st3" d="M1455.5 341.3h80.3v2.2h-80.3z"/><path class="st3" d="M1653.8 433.3c-.6 5.2-5.3 8.9-10.5 8.3-5.2-.6-8.9-5.3-8.3-10.5.6-5.2 5.3-8.9 10.5-8.3 5.1.6 8.9 5.3 8.3 10.5"/><path class="st3" d="M1643.1 396.7h1.2v26.9h-1.2zm-231.5-67.1c-2.1-3.3-1.1-7.6 2.2-9.6 3.3-2.1 7.6-1.1 9.7 2.2 2.1 3.3 1.1 7.6-2.2 9.6-3.3 2-7.7 1.1-9.7-2.2"/><path transform="rotate(-38.977 1427.993 338.279)" class="st3" d="M1427.6 328.3h.9v19.8h-.9z"/><path class="st3" d="M1556.8 385.9c3.3-4 9.3-4.6 13.3-1.3s4.6 9.3 1.3 13.3-9.3 4.6-13.3 1.3-4.6-9.2-1.3-13.3"/><path transform="rotate(-16.981 1555.52 362.485)" class="st3" d="M1554.7 339.8h1.2v45.1h-1.2z"/><path class="st3" d="M1658.9 247c-4-3.4-4.4-9.4-1-13.4 3.4-4 9.4-4.4 13.4-1 4 3.4 4.4 9.4 1 13.4-3.5 4-9.4 4.5-13.4 1"/><path transform="rotate(-15.571 1635.582 247.866)" class="st3" d="M1612.8 247.4h45.1v1.2h-45.1z"/><path class="st3" d="M1748.7 172.3c-3.7 8.6-13.6 12.5-22.2 8.9-8.6-3.7-12.5-13.6-8.9-22.2 3.7-8.6 13.6-12.5 22.2-8.9 8.6 3.7 12.6 13.6 8.9 22.2"/><path transform="rotate(-33.167 1762.92 211.794)" class="st3" d="M1761.9 171.6h2.2v80.3h-2.2z"/><path class="st3" d="M1776.4 454c4.1-8.4 14.2-11.9 22.6-7.8 8.4 4.1 11.9 14.2 7.8 22.6-4.1 8.4-14.2 11.9-22.6 7.8-8.4-4.1-11.9-14.2-7.8-22.6"/><path transform="rotate(-30.356 1764.21 413.768)" class="st3" d="M1763 373.7h2.2V454h-2.2z"/><path class="st3" d="M1906.2 264.3c-5.6-7.4-4.2-18 3.2-23.7 7.4-5.6 18-4.2 23.7 3.2 5.6 7.4 4.2 18-3.2 23.7s-18 4.3-23.7-3.2"/><path transform="rotate(-3.618 1864.81 257.265)" class="st3" d="M1824.6 256.2h80.3v2.2h-80.3z"/><path class="st3" d="M1524.6 211.2c-6-7-5.2-17.6 1.8-23.7 7-6 17.6-5.2 23.7 1.8 6 7 5.2 17.6-1.8 23.7-7 6-17.6 5.2-23.7-1.8"/><path transform="rotate(-47.156 1568.081 229.358)" class="st3" d="M1567.3 203.4h1.4v52h-1.4z"/><path class="st3" d="M1993.8 327.1c-6.9-6.2-7.5-16.9-1.2-23.8 6.2-6.9 16.9-7.5 23.8-1.2 6.9 6.3 7.5 16.9 1.2 23.8-6.2 6.9-16.9 7.4-23.8 1.2m-118.6 131.8c-6.9-6.3-7.5-16.9-1.2-23.8 6.2-6.9 16.9-7.5 23.8-1.2 6.9 6.2 7.5 16.9 1.2 23.8-6.2 6.9-16.9 7.4-23.8 1.2"/><path transform="rotate(-47.91 1945.995 381.327)" class="st3" d="M1872.4 380.3h147.2v2.2h-147.2z"/><path transform="rotate(-54.512 1959.457 283.627)" class="st3" d="M1958.2 243.5h2.2v80.3h-2.2z"/><path class="st3" d="M2059.9 359.3c3.2 4.1 2.5 10.1-1.7 13.3-4.1 3.2-10.1 2.5-13.3-1.7-3.2-4.1-2.5-10.1 1.7-13.3 4.1-3.1 10-2.4 13.3 1.7"/><path transform="rotate(-44.514 2029.898 343.355)" class="st3" d="M2029.5 320.8h1.2v45.1h-1.2z"/><path class="st3" d="M1937.1 489.3c6.3-6.9 17-7.3 23.8-1 6.9 6.3 7.3 17 1 23.9s-17 7.3-23.9 1c-6.7-6.4-7.2-17.1-.9-23.9m63-91.2c6.3-6.9 17-7.3 23.8-1 6.9 6.3 7.3 17 1 23.9-6.3 6.9-17 7.3-23.8 1-6.8-6.4-7.3-17.1-1-23.9"/><path transform="rotate(-47.468 1917.4 472.405)" class="st3" d="M1916.3 445.2h2.2v54.5h-2.2z"/><path transform="rotate(-54.069 1980.96 455.118)" class="st3" d="M1940.7 454h80.3v2.2h-80.3z"/><path class="st3" d="M2065.2 403.7c5.1 1 8.5 5.9 7.5 11.1-1 5.1-5.9 8.5-11.1 7.5-5.1-1-8.5-5.9-7.5-11.1 1-5.1 5.9-8.4 11.1-7.5"/><path transform="rotate(-85.814 2041.308 412.066) scale(.99997)" class="st3" d="M2040.7 398.6h1.2v26.9h-1.2z"/><path class="st3" d="M2010.9 497c-3.8-3.6-3.9-9.6-.3-13.4 3.6-3.8 9.6-4 13.4-.3 3.8 3.6 3.9 9.6.3 13.4-3.6 3.8-9.6 3.9-13.4.3"/><path transform="rotate(-12.839 1987.444 496.643)" class="st3" d="M1964.8 496.2h45.1v1.2h-45.1z"/><path class="st3" d="M1879.8 385.2a9.476 9.476 0 1 1 0-13.4c3.6 3.7 3.6 9.7 0 13.4"/><path class="st3" d="M1875.1 386.5l9 44.2-1.2.3-9-44.2zm219.5-103.6c-8.1-4.7-10.8-15-6.1-23.1 4.7-8.1 15-10.8 23.1-6.1 8.1 4.7 10.8 15 6.1 23.1-4.7 8-15 10.8-23.1 6.1"/><path transform="rotate(-26.224 2053.572 292.27)" class="st3" d="M2013.5 291.2h80.3v2.2h-80.3z"/><path transform="rotate(-7.946 1838.42 455.795)" class="st3" d="M1805.4 455.2h65.2v1.4h-65.2z"/><path class="st3" d="M1351.1 338.2c3.9 8.5.1 18.5-8.4 22.4-8.5 3.9-18.5.1-22.4-8.4-3.9-8.5-.1-18.5 8.4-22.4 8.5-3.8 18.5-.1 22.4 8.4"/><path transform="rotate(-80.898 1389.902 354.215)" class="st3" d="M1388.8 314h2.2v80.3h-2.2z"/><path class="st3" d="M1284.5 411.3c9.2-1.4 17.8 5 19.2 14.2 1.4 9.2-5 17.8-14.2 19.2-9.2 1.4-17.8-5-19.2-14.2-1.4-9.2 5-17.8 14.2-19.2m-62.8 28.5c1.3 9.2-5.1 17.8-14.4 19.1-9.2 1.3-17.8-5.1-19.1-14.4-1.3-9.2 5.1-17.8 14.4-19.1 9.3-1.3 17.8 5.2 19.1 14.4m30.4 106.6c1.3 9.2-5.1 17.8-14.4 19.1-9.2 1.3-17.8-5.1-19.1-14.4-1.3-9.2 5.1-17.8 14.4-19.1 9.3-1.3 17.8 5.2 19.1 14.4m-130.2-154.7c1.3 9.2-5.1 17.8-14.4 19.1-9.2 1.3-17.8-5.1-19.1-14.4-1.3-9.2 5.1-17.8 14.4-19.1 9.2-1.3 17.8 5.2 19.1 14.4"/><path transform="rotate(-8.001 1247.738 435.401)" class="st3" d="M1220 434.2h54.5v2.2H1220z"/><path transform="rotate(-14.602 1220.254 495.098)" class="st3" d="M1219.2 455.1h2.2v80.3h-2.2z"/><path transform="rotate(-64.38 1154.545 418.098)" class="st3" d="M1153.5 377.9h2.2v80.3h-2.2z"/><path class="st3" d="M1206.4 593c-4 3.3-10 2.8-13.3-1.2-3.3-4-2.8-10 1.2-13.3 4-3.3 10-2.8 13.3 1.2 3.3 4 2.8 10-1.2 13.3"/><path transform="rotate(-46.349 1215.041 569.276)" class="st3" d="M1201.7 568.7h26.9v1.2h-26.9z"/><path class="st3" d="M1102.5 350.9c.8-3.8 4.4-6.3 8.2-5.5 3.8.8 6.2 4.4 5.5 8.2-.8 3.8-4.4 6.2-8.2 5.5-3.8-.7-6.3-4.4-5.5-8.2"/><path transform="rotate(-85.378 1108.484 368.563) scale(.99995)" class="st3" d="M1098.6 368.1h19.8v.9h-19.8z"/><path class="st3" d="M1168.8 491.9c5.2-.6 9.9 3.1 10.6 8.3.6 5.2-3.1 9.9-8.2 10.6-5.2.6-9.9-3.1-10.6-8.3-.6-5.3 3-10 8.2-10.6"/><path transform="rotate(-63.378 1184.029 473.73)" class="st3" d="M1161.4 473.1h45.1v1.2h-45.1z"/><path class="st3" d="M1391.5 505.5c6.7-6.5 17.4-6.2 23.9.5s6.2 17.4-.5 23.9-17.4 6.2-23.9-.5c-6.4-6.8-6.2-17.5.5-23.9m68.7-87c6.7-6.5 17.4-6.2 23.9.5s6.2 17.4-.5 23.9c-6.7 6.4-17.4 6.2-23.9-.5-6.4-6.8-6.2-17.5.5-23.9m-49.3 196.1c6.7-6.5 17.4-6.2 23.9.5s6.2 17.4-.5 23.9-17.4 6.2-23.9-.5c-6.4-6.8-6.2-17.4.5-23.9"/><path transform="rotate(-43.788 1372.987 487.383)" class="st3" d="M1371.8 460.2h2.2v54.5h-2.2z"/><path transform="rotate(-50.393 1437.406 474.235)" class="st3" d="M1397.2 473.1h80.3v2.2h-80.3z"/><path transform="rotate(-10.166 1413.093 572.606)" class="st3" d="M1412.1 532.5h2.2v80.3h-2.2z"/><path class="st3" d="M1524.8 428.3c5.1 1.3 8.1 6.5 6.8 11.5-1.3 5.1-6.5 8.1-11.5 6.8-5.1-1.3-8.1-6.5-6.8-11.5s6.4-8.1 11.5-6.8"/><path transform="rotate(-82.137 1500.492 435.107)" class="st3" d="M1499.9 421.7h1.2v26.9h-1.2z"/><path class="st3" d="M1389.2 654.2c-3.5 1.6-7.7.1-9.3-3.5-1.6-3.5-.1-7.7 3.5-9.3 3.5-1.6 7.7-.1 9.3 3.5 1.5 3.5 0 7.7-3.5 9.3"/><path class="st3" d="M1391.3 643.7l16.9-10.2.5.8-17 10.2zm73.4-125.8c-3.6-3.8-3.3-9.8.5-13.4 3.8-3.6 9.8-3.3 13.4.5 3.6 3.8 3.3 9.8-.5 13.4-3.9 3.6-9.9 3.4-13.4-.5"/><path transform="rotate(-9.167 1441.4 516.312)" class="st3" d="M1418.6 515.6h45.1v1.2h-45.1z"/><path class="st3" d="M1338.5 461.7c-.5-5.2 3.3-9.8 8.5-10.4 5.2-.5 9.8 3.3 10.4 8.5.5 5.2-3.3 9.8-8.5 10.4-5.2.5-9.9-3.3-10.4-8.5"/><path transform="rotate(-61.979 1320.837 446.058)" class="st3" d="M1320.2 423.5h1.2v45.1h-1.2z"/><path transform="rotate(-58.486 1310.508 384.57)" class="st3" d="M1277.9 383.9h65.2v1.4h-65.2z"/><path class="st3" d="M1468.6 115c-4.8 3.7-11.6 2.8-15.3-2-3.7-4.8-2.8-11.6 2-15.3 4.8-3.7 11.6-2.8 15.3 2 3.7 4.7 2.8 11.6-2 15.3m-50.1 51.3c-4.8 3.7-11.6 2.8-15.3-2-3.7-4.8-2.8-11.6 2-15.3 4.8-3.7 11.6-2.8 15.3 2 3.6 4.7 2.7 11.6-2 15.3m45.2-122.9c-4.8 3.7-11.6 2.8-15.3-2-3.7-4.8-2.8-11.6 2-15.3 4.8-3.7 11.6-2.8 15.3 2 3.6 4.8 2.7 11.6-2 15.3"/><path transform="rotate(-37.712 1497.862 151.603)" class="st3" d="M1497 104h1.4v95.3h-1.4z"/><path transform="rotate(-44.316 1437.1 131.967)" class="st3" d="M1411 131.3h52v1.4h-52z"/><path transform="rotate(-4.088 1459.385 70.282)" class="st3" d="M1458.6 44.3h1.4v52h-1.4z"/><path class="st3" d="M1438.8 266.1c-2.7 2.1-6.5 1.6-8.6-1.1-2.1-2.7-1.6-6.5 1.1-8.6 2.7-2.1 6.5-1.6 8.6 1.1 2.1 2.7 1.6 6.6-1.1 8.6m27.2-75.8c-2.7 2.1-6.5 1.6-8.6-1.1-2.1-2.7-1.6-6.5 1.1-8.6 2.7-2.1 6.5-1.6 8.6 1.1 2 2.6 1.5 6.5-1.1 8.6"/><path transform="rotate(-44.316 1449.257 246.902)" class="st3" d="M1434.6 246.5h29.2v.8h-29.2z"/><path class="st3" d="M1377.6 155.5c-3.2-1.2-4.8-4.7-3.6-7.9 1.2-3.2 4.7-4.8 7.9-3.6 3.2 1.2 4.8 4.7 3.6 7.9-1.2 3.2-4.7 4.8-7.9 3.6"/><path transform="rotate(-76.061 1393.648 152.806)" class="st3" d="M1393.3 144.1h.8v17.4h-.8z"/><path class="st3" d="M1480.4 19.5c2.4-.8 4.9.5 5.7 2.9.8 2.4-.5 4.9-2.9 5.7-2.4.8-4.9-.5-5.7-2.9-.8-2.4.5-5 2.9-5.7"/><path transform="rotate(-25.082 1472.508 28.487)" class="st3" d="M1465.9 28.2h12.8v.6h-12.8z"/><path transform="matrix(.9975 -.07133 .07133 .9975 -10.92 104.922)" class="st3" d="M1463.1 190.7h.8v29.2h-.8z"/><path class="st3" d="M1422.4 102c2 2.7 1.5 6.6-1.2 8.6s-6.6 1.5-8.6-1.3c-2-2.7-1.5-6.6 1.3-8.6 2.7-2 6.5-1.5 8.5 1.3"/><path transform="matrix(.9985 -.05396 .05396 .9985 -3.554 77.723)" class="st3" d="M1422.9 104.3h29.2v.8h-29.2z"/><path class="st3" d="M1472.7 221.3c5 3.4 6.2 10.2 2.8 15.2-3.4 5-10.2 6.2-15.2 2.8-5-3.4-6.2-10.2-2.8-15.2 3.4-5 10.2-6.2 15.2-2.8"/><path transform="rotate(-21.678 1499.479 217.365)" class="st3" d="M1473.6 216.7h52v1.4h-52z"/><path class="st3" d="M1551.4 133.3c-5.4 2.6-12 .3-14.6-5.1-2.6-5.4-.3-12 5.1-14.6 5.4-2.6 12-.3 14.6 5.1 2.6 5.5.3 12-5.1 14.6"/><path transform="rotate(-82.126 1541.57 158.639)" class="st3" d="M1515.6 158h52v1.4h-52z"/><path class="st3" d="M1580 488.2c4.6 8 1.8 18.3-6.2 22.9-8 4.6-18.3 1.8-22.9-6.2s-1.8-18.3 6.2-22.9c8.1-4.6 18.3-1.8 22.9 6.2"/><path transform="rotate(-36.448 1540.688 462.256)" class="st3" d="M1540.1 436.3h1.4v52h-1.4z"/><path class="st3" d="M1617.2 593.1c5.4-2.7 12-.6 14.7 4.8 2.7 5.4.6 12-4.8 14.7-5.4 2.7-12 .6-14.7-4.8-2.7-5.4-.6-11.9 4.8-14.7m58.8-41c5.4-2.7 12-.6 14.7 4.8 2.7 5.4.6 12-4.8 14.7-5.4 2.7-12 .6-14.7-4.8s-.6-12 4.8-14.7"/><path transform="rotate(-27 1595.553 551.705)" class="st3" d="M1594.7 504h1.4v95.3h-1.4z"/><path transform="rotate(-33.606 1651.241 582.276)" class="st3" d="M1625.4 581.6h52v1.4h-52z"/><path class="st3" d="M1674.6 450.1c3-1.5 6.7-.3 8.3 2.7 1.5 3 .3 6.7-2.7 8.2-3 1.5-6.7.3-8.2-2.7-1.6-2.9-.4-6.6 2.6-8.2m-40.8 69.5c3-1.5 6.7-.3 8.2 2.7 1.5 3 .3 6.7-2.7 8.2-3 1.5-6.7.3-8.2-2.7-1.5-2.9-.3-6.6 2.7-8.2"/><path transform="rotate(-33.606 1660.62 467.102)" class="st3" d="M1646.2 466.7h29.2v.8h-29.2z"/><path class="st3" d="M1714.2 570.2c2.9 1.8 3.8 5.5 2.1 8.4-1.8 2.9-5.5 3.8-8.4 2.1-2.9-1.8-3.8-5.5-2.1-8.4 1.7-2.9 5.5-3.8 8.4-2.1"/><path class="st3" d="M1705.6 573.9l-15.8-7.3.3-.7 15.8 7.2z"/><path transform="rotate(-83.379 1639.065 505.304)" class="st3" d="M1624.4 504.9h29.2v.8h-29.2z"/><path class="st3" d="M1660.2 614.5c-1.5-3-.2-6.7 2.8-8.2 3-1.5 6.7-.2 8.2 2.8 1.5 3 .2 6.7-2.8 8.2-3.1 1.5-6.7.3-8.2-2.8"/><path transform="rotate(-82.38 1645.855 609.039)" class="st3" d="M1645.5 594.5h.8v29.2h-.8z"/><path class="st3" d="M2141.9 150c-1.2 1-2.2 2.3-2.9 3.9-2 4.5-.7 9.6 2.9 12.7V150zm-66.3-1.3c-5.5-2.4-8-8.9-5.6-14.4 2.4-5.5 8.9-8 14.4-5.6 5.5 2.4 8 8.9 5.6 14.4-2.4 5.5-8.9 8-14.4 5.6m66.3 25.5l-35.3 80.5 1.3.5 34-77.5z"/><path transform="rotate(-72.915 2114.477 148.603)" class="st3" d="M2113.9 122.6h1.4v52h-1.4z"/><path class="st3" d="M2065.5 107.7c-.5-3.4 1.9-6.5 5.2-6.9 3.4-.5 6.5 1.9 6.9 5.2.5 3.4-1.9 6.5-5.2 6.9-3.3.5-6.4-1.9-6.9-5.2"/><path class="st3" d="M2073.7 112l4.4 16.9-.7.1-4.4-16.8zm60.2 9.4c-1.4 3.1-5.1 4.4-8.1 3-3.1-1.4-4.4-5.1-3-8.1 1.4-3.1 5.1-4.4 8.1-3 3.1 1.4 4.5 5 3 8.1"/><path class="st3" d="M2141.9 140.2l-10.5-16.9-.6.4 11.1 18zM1105.4 264.9c-6.8 6.4-17.5 6.1-23.9-.7-6.4-6.8-6.1-17.5.7-23.9 6.8-6.4 17.5-6.1 23.9.7 6.4 6.8 6.1 17.5-.7 23.9"/><path transform="rotate(-9.599 1102.725 306.967)" class="st3" d="M1101.6 266.6h2.2v80.3h-2.2z"/><path class="st3" d="M916.8 396.2c2.6 8.9-2.5 18.3-11.4 21-8.9 2.6-18.3-2.5-21-11.4-2.6-8.9 2.5-18.3 11.4-21 9-2.7 18.3 2.4 21 11.4m-59.6-89.7c4.3 8.3 1 18.5-7.3 22.7-8.3 4.3-18.5 1-22.7-7.3-4.3-8.3-1-18.5 7.3-22.7 8.2-4.3 18.4-1 22.7 7.3m157.6-81.3c4.3 8.3 1 18.5-7.3 22.7-8.3 4.3-18.5 1-22.7-7.3-4.3-8.3-1-18.5 7.3-22.7 8.3-4.2 18.4-1 22.7 7.3"/><path transform="rotate(-27.139 921.1 272.612)" class="st3" d="M847.5 271.6h147.2v2.2H847.5z"/><path transform="rotate(-33.747 873.92 359.315)" class="st3" d="M872.9 319.1h2.2v80.3h-2.2z"/><path class="st3" d="M806.8 252.9c-1.5-5 1.3-10.3 6.3-11.8s10.3 1.3 11.8 6.3-1.3 10.3-6.3 11.8c-4.9 1.5-10.2-1.3-11.8-6.3"/><path transform="rotate(-23.737 829.128 278.347)" class="st3" d="M828.4 255.8h1.2v45.1h-1.2z"/><path class="st3" d="M967.7 174.9c-8.3 4.2-18.5.8-22.7-7.5-4.2-8.3-.8-18.5 7.5-22.7 8.3-4.2 18.5-.8 22.7 7.5 4.2 8.4.8 18.5-7.5 22.7m-91.2 63c-8.3 4.2-18.5.8-22.7-7.5-4.2-8.3-.8-18.5 7.5-22.7 8.3-4.2 18.5-.8 22.7 7.5 4.1 8.3.8 18.5-7.5 22.7"/><path transform="rotate(-26.696 980.23 197.622)" class="st3" d="M979.1 170.4h2.2v54.5h-2.2z"/><path transform="rotate(-33.304 914.642 191.317)" class="st3" d="M874.6 190.2h80.3v2.2h-80.3z"/><path class="st3" d="M2141.9 257.7l-24.8 5.6.5 2.1 24.3-5.4zM817.6 209.5c-4.5-2.7-5.9-8.6-3.1-13 2.7-4.5 8.6-5.9 13-3.1 4.5 2.7 5.9 8.6 3.1 13-2.7 4.4-8.5 5.8-13 3.1"/><path transform="rotate(-65.044 842.938 210.14)" class="st3" d="M842.3 196.7h1.2v26.9h-1.2z"/><path class="st3" d="M901.4 141.5c2.3 4.7.3 10.4-4.4 12.6-4.7 2.3-10.4.3-12.6-4.4-2.3-4.7-.3-10.4 4.4-12.6 4.7-2.3 10.4-.3 12.6 4.4"/><path transform="rotate(-82.08 923.377 150.034)" class="st3" d="M922.8 127.5h1.2v45.1h-1.2z"/><path class="st3" d="M984.4 292.6c4.8-2.2 10.4 0 12.5 4.7 2.2 4.8 0 10.4-4.7 12.5-4.8 2.2-10.4 0-12.5-4.7-2.2-4.8-.1-10.4 4.7-12.5"/><path transform="rotate(-80.677 993.46 270.781)" class="st3" d="M970.9 270.2h45.1v1.2h-45.1z"/><path transform="rotate(-5.456 788.87 317.759) scale(1.00003)" class="st3" d="M748.7 316.7H829v2.2h-80.3z"/><path transform="rotate(-77.185 1048.425 241.267)" class="st3" d="M1047.8 208.6h1.4v65.2h-1.4z"/><path class="st3" d="M996.3 397.3c.1 6-4.7 11-10.7 11.1-6 .1-11-4.7-11.1-10.7-.1-6 4.7-11 10.7-11.1 6-.1 11 4.7 11.1 10.7m11.3 70.9c.1 6-4.7 11-10.7 11.1-6 .1-11-4.7-11.1-10.7-.1-6 4.7-11 10.7-11.1 6-.2 11 4.6 11.1 10.7"/><path transform="rotate(-1.146 1043.095 395.883)" class="st3" d="M995.5 395.1h95.3v1.4h-95.3z"/><path transform="rotate(-7.735 991.498 432.851)" class="st3" d="M990.4 406.8h1.4v52h-1.4z"/><path class="st3" d="M974.6 494.6c-2.8 1.8-6.6 1-8.5-1.8-1.8-2.8-1-6.6 1.8-8.5 2.8-1.8 6.6-1 8.5 1.8 1.9 2.8 1.1 6.6-1.8 8.5"/><path transform="rotate(-39.484 982.133 480)" class="st3" d="M973.4 479.6h17.4v.8h-17.4z"/><path class="st3" d="M958.3 426.7c3.4 0 6.1 2.7 6.1 6.1 0 3.4-2.7 6.1-6.1 6.1-3.4 0-6.1-2.7-6.1-6.1 0-3.4 2.8-6.1 6.1-6.1"/><path transform="rotate(-56.518 969.43 416.207)" class="st3" d="M954.9 415.8h29.2v.8h-29.2z"/><path class="st3" d="M1633 487.9c-4.2-4.3-4.2-11.2.1-15.4 4.3-4.2 11.2-4.2 15.4.1 4.2 4.3 4.2 11.2-.1 15.4-4.3 4.2-11.2 4.2-15.4-.1"/><path transform="rotate(-10.965 1605.75 486.768)" class="st3" d="M1579.8 486.1h52v1.4h-52z"/><path class="st3" d="M1539.3 559.7c5.8-1.6 11.8 1.9 13.4 7.7 1.6 5.8-1.9 11.8-7.7 13.4-5.8 1.6-11.8-1.9-13.4-7.7-1.6-5.8 1.8-11.8 7.7-13.4"/><path transform="rotate(-71.416 1553.547 536.625)" class="st3" d="M1527.6 535.9h52v1.4h-52z"/><path class="st3" d="M289.1 373.1c-7.5-5.5-18.1-4-23.7 3.5-5.6 7.5-4 18.1 3.5 23.6s18.1 4 23.7-3.5c5.5-7.5 4-18.1-3.5-23.6m106-142.4c-7.5-5.5-18.1-4-23.7 3.5-5.6 7.5-4 18.1 3.5 23.6s18.1 4 23.7-3.5c5.6-7.5 4-18-3.5-23.6m-188.3 52.2c-11.5-8.5-27.8-6.1-36.4 5.4-8.5 11.5-6.1 27.8 5.4 36.3 11.5 8.5 27.8 6.1 36.4-5.4 8.5-11.5 6.1-27.7-5.4-36.3"/><path class="st3" d="M376 255.6L288.1 374l1.8 1.3 87.8-118.4zm-166.6 65.6l58.8 54.9 1.5-1.6-58.8-54.9zm-157.3-114c5.2-7.8 3.1-18.2-4.7-23.4-7.8-5.2-18.3-3.1-23.5 4.7-5.2 7.8-3.1 18.2 4.7 23.4s18.3 3 23.5-4.7m73.8-83c5.2-7.8 3.1-18.2-4.7-23.4-7.8-5.2-18.3-3.1-23.5 4.7-5.2 7.8-3.1 18.2 4.7 23.4 7.8 5.2 18.3 3.1 23.5-4.7"/><path class="st3" d="M173.9 287.9L51.1 206.3l-1.2 1.8 122.8 81.6zm-73.8-162.7L48 186.5l1.7 1.4 52.1-61.3zM0 196.6h22.3v2.2H0zm282.3-51.9c2.9-4.4 1.7-10.2-2.6-13.1-4.4-2.9-10.3-1.7-13.2 2.6-2.9 4.4-1.7 10.2 2.6 13.1 4.4 2.9 10.3 1.7 13.2-2.6m-114.2 50.1c2.9-4.4 1.7-10.2-2.6-13.1-4.4-2.9-10.3-1.7-13.2 2.6-2.9 4.4-1.7 10.2 2.6 13.1 4.4 2.9 10.3 1.7 13.2-2.6"/><path class="st3" d="M267.9 145.2l-29.2 34.4.9.8 29.2-34.4zM104.8 62.4c-2.2-4.8-7.8-6.8-12.6-4.7-4.8 2.2-6.9 7.8-4.7 12.6s7.8 6.9 12.6 4.7 6.9-7.9 4.7-12.6"/><path transform="rotate(-18.006 102.362 87.534)" class="st3" d="M101.8 74.1h1.2V101h-1.2z"/><path class="st3" d="M333.8 431.4c4.7 2.3 10.4.4 12.7-4.3 2.3-4.7.4-10.4-4.3-12.7-4.7-2.3-10.4-.4-12.7 4.3-2.3 4.7-.4 10.4 4.3 12.7"/><path class="st3" d="M331.5 417.2l-37.9-24.7-.6 1.1 37.8 24.6zm-163-228.4h45.2v1.2h-45.2zM27 137.3c4.4 2.8 10.3 1.5 13.1-2.9 2.8-4.4 1.6-10.3-2.9-13.1-4.4-2.8-10.3-1.5-13.1 2.9-2.8 4.5-1.6 10.3 2.9 13.1"/><path transform="matrix(.9999 -.01632 .01632 .9999 -2.61 .556)" class="st3" d="M32.2 137.7h1.2v45.1h-1.2z"/><path class="st3" d="M437.2 285.4c-5.5 7.5-3.8 18.1 3.7 23.6s18.1 3.8 23.6-3.7 3.8-18.1-3.7-23.6-18.1-3.9-23.6 3.7M360 365.2c-5.5 7.5-3.8 18.1 3.7 23.6s18.1 3.8 23.6-3.7 3.8-18.1-3.7-23.6-18.1-3.9-23.6 3.7m188.2-75.3c-5.5 7.5-3.8 18.1 3.7 23.6s18.1 3.8 23.6-3.7 3.8-18.1-3.7-23.6-18.1-3.8-23.6 3.7"/><path class="st3" d="M394 254.2l44.1 32.1 1.3-1.8-44.1-32zm-8.2 111l54.6-59-1.6-1.5-54.6 59.1z"/><path transform="rotate(-87.576 506.806 297.812)" class="st3" d="M505.7 257.6h2.2v80.5h-2.2z"/><path class="st3" d="M378.5 427.8c2 4.8 7.5 7.2 12.4 5.2s7.2-7.5 5.2-12.4c-2-4.8-7.5-7.2-12.4-5.2-4.8 2-7.2 7.6-5.2 12.4"/><path transform="rotate(-15.598 381.934 402.766)" class="st3" d="M381.3 389.4h1.2v26.9h-1.2z"/><path class="st3" d="M584.6 263c1.1-3.7-1-7.6-4.7-8.7-3.7-1.1-7.6 1-8.7 4.7-1.1 3.7 1 7.6 4.7 8.7s7.5-1 8.7-4.7"/><path class="st3" d="M574.5 266.5l-7.9 18.2.8.3 7.9-18.2zm-115.1 89.7c-4.3-3-10.2-2-13.2 2.3s-2 10.2 2.3 13.2 10.2 2 13.2-2.3 2-10.2-2.3-13.2"/><path transform="rotate(-88.533 454.553 333.094) scale(1.00003)" class="st3" d="M432 332.5h45.1v1.2H432z"/><path class="st3" d="M323.6 249.7c2.9-4.4 1.7-10.2-2.6-13.1-4.4-2.9-10.3-1.7-13.2 2.6-2.9 4.4-1.7 10.2 2.6 13.1 4.4 3 10.3 1.8 13.2-2.6"/><path class="st3" d="M324 243.7h45.2v1.2H324zm-107.2-41.9c5.8 7.3 16.5 8.4 23.8 2.6 7.3-5.8 8.5-16.5 2.6-23.7-5.8-7.3-16.5-8.4-23.8-2.6-7.3 5.8-8.4 16.4-2.6 23.7"/><path class="st3" d="M224.8 205.1l-24.4 76.6 2 .6 24.5-76.6zm40.8 275.5c-6.2-7-16.9-7.6-23.9-1.4-7 6.2-7.6 16.9-1.4 23.8 6.2 7 16.9 7.6 23.9 1.4 6.9-6.1 7.6-16.8 1.4-23.8"/><path class="st3" d="M257.5 477.7l20.6-77.6-2.1-.6-20.6 77.7zm-168.1-145c3.5-8.7-.8-18.5-9.5-21.9-8.7-3.4-18.5.8-22 9.4-3.5 8.7.8 18.5 9.5 21.9 8.7 3.5 18.5-.7 22-9.4"/><path transform="rotate(-11.902 127.516 314.776)" class="st3" d="M87.3 313.7h80.5v2.2H87.3z"/><path class="st3" d="M443.6 179.2c3.9-8.4.3-18.4-8.1-22.3-8.4-3.9-18.4-.3-22.4 8.1-3.9 8.4-.3 18.4 8.1 22.3 8.5 3.9 18.5.3 22.4-8.1"/><path class="st3" d="M419.7 185.8l-27.4 44.3 1.2.8 27.4-44.3zM16.4 393.3c-5.1-3.2-11.3-3.4-16.4-.9v30.4c7.6 3.7 17 1.2 21.6-6.2 5.1-7.9 2.7-18.3-5.2-23.3m155.1 118.5c5-7.9 2.7-18.3-5.2-23.3s-18.3-2.7-23.3 5.2-2.7 18.3 5.2 23.3c7.8 5.1 18.3 2.7 23.3-5.2"/><path class="st3" d="M145.2 494.6L20.6 415.8l-1.1 1.8 124.6 78.8zm-77.4-161l-50.7 62.5 1.7 1.3L69.5 335zM0 427.1l2.5-4.5-1.1-.6-1.4 2.6zm119.9 130.6c-7.9-4.9-18.4-2.5-23.3 5.4-4.9 7.9-2.5 18.3 5.4 23.3 7.9 4.9 18.4 2.5 23.3-5.4 4.9-8 2.5-18.4-5.4-23.3m-85.3-71c-7.9-4.9-18.4-2.5-23.3 5.4-4.9 7.9-2.5 18.3 5.4 23.3 7.9 4.9 18.4 2.5 23.3-5.4 5-8 2.5-18.4-5.4-23.3"/><path class="st3" d="M147.9 512.5l-28.8 46.2 1.8 1.2 28.9-46.3zm-111.5-.1l62.9 50 1.4-1.7-63-50zm-36.4-1l11.5-4.1-.4-1.2-11.1 4zm50.7 73.5c2.7-4.5 1.2-10.3-3.3-13-4.5-2.7-10.3-1.2-13 3.3-2.7 4.5-1.2 10.3 3.3 13 4.5 2.7 10.3 1.2 13-3.3"/><path transform="rotate(-2.7 73.408 578.445) scale(1.00001)" class="st3" d="M50.8 577.8H96v1.2H50.8z"/><path class="st3" d="M147.4 442c4.6 2.6 10.4 1 12.9-3.6 2.6-4.6 1-10.3-3.6-12.9-4.6-2.6-10.4-1-12.9 3.6-2.6 4.6-1 10.4 3.6 12.9"/><path transform="matrix(.9975 -.07116 .07116 .9975 -32.666 12.166)" class="st3" d="M153.8 442h1.2v45.1h-1.2z"/><path transform="rotate(-7.579 206.672 499.145)" class="st3" d="M173.9 498.3h65.4v1.4h-65.4z"/><path class="st3" d="M645.3 255c-1.5 9.2 4.8 17.9 14.1 19.3 9.2 1.5 17.9-4.8 19.4-14s-4.8-17.9-14.1-19.3c-9.3-1.5-18 4.8-19.4 14"/><path class="st3" d="M648.2 263.1L575 296.6l.9 2 73.2-33.5zm81 44.6c-9.3 1.2-15.9 9.6-14.7 18.8 1.2 9.3 9.6 15.8 18.9 14.7 9.3-1.2 15.9-9.6 14.7-18.8-1.2-9.3-9.7-15.9-18.9-14.7m-78.1 119.4c-8.2-4.4-18.5-1.3-22.9 6.9-4.4 8.2-1.3 18.4 6.9 22.9 8.2 4.4 18.5 1.3 22.9-6.9 4.4-8.3 1.3-18.5-6.9-22.9m-89.7-65.4c-8.2-4.4-18.5-1.3-22.9 6.9-4.4 8.2-1.3 18.4 6.9 22.9 8.2 4.4 18.5 1.3 22.9-6.9 4.4-8.3 1.3-18.5-6.9-22.9m100.2 175.7c-8.2-4.4-18.5-1.3-22.9 6.9-4.4 8.2-1.3 18.4 6.9 22.9 8.2 4.4 18.5 1.3 22.9-6.9 4.4-8.3 1.3-18.5-6.9-22.9"/><path class="st3" d="M676.1 380.1l-25.8 48 1.9 1.1 25.9-48zm-111.3 7.1l66 45.9 1.3-1.8-66.1-45.9z"/><path transform="matrix(.9956 -.09345 .09345 .9956 -43.663 62.747)" class="st3" d="M647 457.4h2.2v80.3H647z"/><path class="st3" d="M501.7 388.5c-4.5 2.6-6.1 8.4-3.5 12.9 2.6 4.5 8.4 6.1 13 3.5 4.5-2.6 6.1-8.4 3.5-12.9-2.7-4.6-8.5-6.1-13-3.5"/><path class="st3" d="M514.9 394.4l24.7-10.7-.5-1.1-24.7 10.7zm178.3 175.3c3.8.6 7.4-2 8-5.8.6-3.8-2-7.4-5.8-8-3.8-.6-7.4 2-8 5.8-.6 3.8 2 7.4 5.8 8"/><path transform="rotate(-74.413 678.688 557.98)" class="st3" d="M678.3 548h.9v19.9h-.9z"/><path class="st3" d="M583.8 458.7c2.4-4.7.6-10.4-4.1-12.8-4.7-2.4-10.4-.6-12.8 4.1-2.4 4.7-.6 10.4 4.1 12.8 4.6 2.4 10.4.5 12.8-4.1"/><path transform="rotate(-6.367 606.002 450.718)" class="st3" d="M583.4 450.1h45.2v1.2h-45.2z"/><path class="st3" d="M690.5 370.7c-.9-5.2-5.8-8.6-11-7.7-5.2.9-8.6 5.8-7.7 11 .9 5.2 5.8 8.6 11 7.7 5.1-1 8.6-5.9 7.7-11"/><path class="st3" d="M687.5 366.9l32.7-31.1-.8-.9-32.8 31.1zm-15-99.8l47.9 44.5.9-1.1-47.8-44.4zM471.9 71.5c5.6 2.3 12-.4 14.3-6 2.3-5.6-.4-12-6-14.2-5.6-2.3-12 .4-14.3 6-2.3 5.6.4 11.9 6 14.2m62.2 36c5.6 2.3 12-.4 14.3-6 2.3-5.6-.4-12-6-14.2-5.6-2.3-12 .4-14.3 6-2.3 5.5.4 11.9 6 14.2"/><path class="st3" d="M436.3 159l36-88.2-1.3-.5-36 88.2zm93.9-67.7l-45.7-25-.7 1.2 45.7 25zm11 117.9c3.1 1.3 6.7-.2 8-3.4 1.3-3.1-.2-6.7-3.4-8-3.1-1.3-6.7.2-8 3.4-1.2 3.1.3 6.7 3.4 8m-46.5-65.9c3.1 1.3 6.7-.2 8-3.4 1.3-3.1-.2-6.7-3.4-8-3.1-1.3-6.7.2-8 3.4-1.3 3.2.2 6.7 3.4 8"/><path class="st3" d="M539 200.1L513.4 186l-.4.7 25.6 14.1zm31.7-114c2.7-2 3.3-5.8 1.4-8.6-2-2.7-5.8-3.3-8.6-1.3-2.7 2-3.3 5.8-1.4 8.6 2 2.7 5.8 3.3 8.6 1.3"/><path class="st3" d="M561.8 83.2l-15.2 8.6.4.7 15.2-8.6z"/><path transform="rotate(-11.45 501.05 157.191)" class="st3" d="M500.7 142.6h.8v29.2h-.8z"/><path class="st3" d="M513.1 46.6c-1.2 3.2.3 6.7 3.5 7.9 3.2 1.2 6.7-.3 8-3.5 1.2-3.2-.3-6.7-3.5-7.9-3.3-1.2-6.8.3-8 3.5"/><path transform="rotate(-12.427 499.233 53.215)" class="st3" d="M484.6 52.8h29.2v.8h-29.2z"/><path class="st3" d="M496.5 175.1c-3.9 4.6-3.2 11.5 1.4 15.4 4.6 3.9 11.5 3.2 15.4-1.4 3.9-4.6 3.2-11.5-1.4-15.4-4.6-3.9-11.5-3.3-15.4 1.4"/><path transform="rotate(-83.886 469.447 178.466)" class="st3" d="M468.7 152.4h1.4v52.1h-1.4z"/><path class="st3" d="M396.9 111.4c5.9 1.1 11.6-2.9 12.7-8.8 1.1-5.9-2.9-11.6-8.8-12.7-6-1.1-11.6 2.9-12.7 8.8-1.1 5.9 2.9 11.6 8.8 12.7"/><path transform="rotate(-23.437 413.24 133.177)" class="st3" d="M412.5 107.2h1.4v52h-1.4z"/><path class="st3" d="M464.4 461c-2.3 9 3.1 18.1 12.1 20.4 9 2.3 18.2-3.1 20.5-12.1 2.3-9-3.1-18.1-12.1-20.4-9-2.4-18.2 3.1-20.5 12.1"/><path class="st3" d="M486.7 450l18.6-48.6-1.3-.5-18.6 48.6zm-30 122c-5.9-1.2-11.7 2.6-12.9 8.5-1.2 5.9 2.6 11.7 8.5 12.9 5.9 1.2 11.7-2.6 12.9-8.5 1.2-5.9-2.6-11.7-8.5-12.9m-67.8-23.8c-5.9-1.2-11.7 2.6-12.9 8.5-1.2 5.9 2.6 11.7 8.5 12.9 5.9 1.2 11.7-2.6 12.9-8.5 1.2-5.9-2.6-11.7-8.5-12.9m95 90.2c-5.9-1.2-11.7 2.6-12.9 8.5-1.2 5.9 2.6 11.7 8.5 12.9s11.7-2.6 12.9-8.5c1.2-6-2.6-11.7-8.5-12.9"/><path transform="rotate(-78.492 466.56 526.227)" class="st3" d="M418.9 525.5h95.3v1.4h-95.3z"/><path class="st3" d="M395.7 563.4l49.6 16.1.4-1.4-49.5-16.1z"/><path transform="rotate(-22.184 468.06 616.208)" class="st3" d="M467.4 590.2h1.4v52h-1.4z"/><path class="st3" d="M362.9 449.6c-3.3-.7-6.6 1.5-7.2 4.8-.7 3.3 1.5 6.6 4.8 7.2 3.3.7 6.6-1.5 7.2-4.8.7-3.3-1.5-6.5-4.8-7.2m58 56.1c-3.3-.7-6.6 1.5-7.2 4.8-.7 3.3 1.5 6.6 4.8 7.2 3.3.7 6.6-1.5 7.2-4.8.7-3.3-1.5-6.6-4.8-7.2"/><path class="st3" d="M366.8 458.1l27.8 9.1.2-.8-27.8-9zm-9.9 117.8c-2.3 2.5-2.2 6.4.3 8.7 2.5 2.3 6.4 2.2 8.7-.3 2.3-2.5 2.2-6.3-.3-8.7-2.5-2.2-6.4-2.1-8.7.3"/><path class="st3" d="M366.2 577.1l13.3-11.2-.5-.6-13.4 11.2zm143.3 75.4c2.5-.3 4.2-2.6 3.9-5.1-.3-2.5-2.6-4.2-5.1-3.9-2.5.3-4.2 2.6-3.9 5.1.3 2.5 2.6 4.2 5.1 3.9"/><path transform="rotate(-1.174 498.286 647.945) scale(1.00001)" class="st3" d="M491.9 647.6h12.9v.6h-12.9z"/><path transform="rotate(-22.184 411.98 493.174)" class="st3" d="M411.6 478.6h.8v29.2h-.8z"/><path class="st3" d="M420.9 604.1c.6-3.3-1.6-6.5-4.9-7.1-3.3-.6-6.5 1.6-7.2 4.9-.6 3.3 1.6 6.5 4.9 7.1 3.4.7 6.6-1.5 7.2-4.9"/><path transform="rotate(-23.122 433.125 594.98)" class="st3" d="M418.6 594.7h29.2v.8h-29.2z"/><path class="st3" d="M413.2 474.8c2.9-5.3 1-11.9-4.2-14.9-5.3-2.9-12-1-14.9 4.2-2.9 5.3-1 11.9 4.2 14.9 5.3 3 12 1.1 14.9-4.2"/><path transform="matrix(.9968 -.07977 .07977 .9968 -35.81 36.517)" class="st3" d="M413.1 465.8h52.1v1.4h-52.1z"/><path class="st3" d="M522.9 518.9c-6 .1-10.9 5-10.9 11 .1 6 5 10.9 11 10.8 6-.1 10.9-5 10.9-11s-4.9-10.8-11-10.8"/><path transform="rotate(-34.167 502.864 500.543)" class="st3" d="M502.2 474.5h1.4v52h-1.4z"/></g></svg>