<svg id="Слой_1" data-name="Слой 1" xmlns="http://www.w3.org/2000/svg" viewBox="0 0 122 122"><defs><style>.cls-1{fill:#73d1db;}</style></defs><title>doctor</title><path class="cls-1" d="M47.8,120.25A69.38,69.38,0,0,1,10,109.05l2.1-3.3a65.08,65.08,0,0,0,71.2,0l2.1,3.3A68,68,0,0,1,47.8,120.25Z"/><path class="cls-1" d="M3.8,100.65,0,99.85a48.77,48.77,0,0,1,28.5-34.5l1.2-.5,18.1,18.1L66,64.75l1.2.5a49.2,49.2,0,0,1,28.5,34.5l-3.8.8a45.14,45.14,0,0,0-25-31.2l-19,19-19-19A45.39,45.39,0,0,0,3.8,100.65Z"/><rect class="cls-1" x="45.9" y="85.65" width="3.9" height="5.6"/><rect class="cls-1" x="64.5" y="84.75" width="3.9" height="5.6"/><rect class="cls-1" x="45.9" y="97.95" width="3.9" height="20.3"/><path class="cls-1" d="M77.4,103.65h-22V88.45h22Zm-18.1-3.9H73.6v-7.3H59.3Z"/><path class="cls-1" d="M47.8,63.15A23.86,23.86,0,0,1,24,39.35V28.45h3.9v10.9a19.9,19.9,0,1,0,39.8,0V28.45h3.9v10.9A23.73,23.73,0,0,1,47.8,63.15Z"/><path class="cls-1" d="M71.7,30.35H24V7.25l1.1-.5a54,54,0,0,1,45.4,0l1.1.5v23.1Zm-43.8-3.9H67.8V9.75a50.34,50.34,0,0,0-39.8,0v16.7Z"/><rect class="cls-1" x="45.9" y="10.95" width="3.9" height="13"/><rect class="cls-1" x="41.4" y="15.55" width="13" height="3.9"/></svg>