<svg id="Слой_1" data-name="Слой 1" xmlns="http://www.w3.org/2000/svg" xmlns:xlink="http://www.w3.org/1999/xlink" viewBox="0 0 122 122"><defs><style>.cls-1{fill:none;}.cls-2{clip-path:url(#clip-path);}.cls-3{fill:#73d1db;}</style><clipPath id="clip-path"><rect class="cls-1" y="14.25" width="121.1" height="93.5"/></clipPath></defs><title>eye</title><g class="cls-2"><path class="cls-3" d="M60.6,31.65A29.3,29.3,0,1,0,89.9,61a29.34,29.34,0,0,0-29.3-29.3m0,62.6A33.2,33.2,0,1,1,93.8,61a33.25,33.25,0,0,1-33.2,33.2"/></g><g class="cls-2"><path class="cls-3" d="M60.6,53a8,8,0,1,0,8,8,8,8,0,0,0-8-8m0,19.8a11.93,11.93,0,0,1-11.9-11.9,11.9,11.9,0,1,1,11.9,11.9"/></g><path class="cls-3" d="M4.7,61a68,68,0,0,0,111.8,0A68,68,0,0,0,4.7,61m55.9,33.3A71.88,71.88,0,0,1,.7,62.15L0,61l.7-1.1a71.94,71.94,0,0,1,119.8,0l.7,1.1-.7,1.1a72,72,0,0,1-59.9,32.2"/><polygon class="cls-3" points="91.9 14.25 91.9 18.15 103.4 18.15 103.4 29.65 107.3 29.65 107.3 14.25 91.9 14.25"/><polygon class="cls-3" points="13.8 14.25 13.8 29.65 17.7 29.65 17.7 18.15 29.2 18.15 29.2 14.25 13.8 14.25"/><polygon class="cls-3" points="103.4 92.35 103.4 103.85 91.9 103.85 91.9 107.75 107.3 107.75 107.3 92.35 103.4 92.35"/><polygon class="cls-3" points="13.8 92.35 13.8 107.75 29.2 107.75 29.2 103.85 17.7 103.85 17.7 92.35 13.8 92.35"/><rect class="cls-3" x="49.4" y="14.25" width="4.5" height="3.9"/><rect class="cls-3" x="58.3" y="14.25" width="4.5" height="3.9"/><rect class="cls-3" x="67.3" y="14.25" width="4.5" height="3.9"/><rect class="cls-3" x="49.4" y="103.85" width="4.5" height="3.9"/><rect class="cls-3" x="58.3" y="103.85" width="4.5" height="3.9"/><rect class="cls-3" x="67.3" y="103.85" width="4.5" height="3.9"/></svg>