<?xml version="1.0" standalone="no"?>
<!DOCTYPE svg PUBLIC "-//W3C//DTD SVG 20010904//EN"
 "http://www.w3.org/TR/2001/REC-SVG-20010904/DTD/svg10.dtd">
<svg version="1.0" xmlns="http://www.w3.org/2000/svg"
 width="60.000000pt" height="60.000000pt" viewBox="0 0 60.000000 60.000000"
 preserveAspectRatio="xMidYMid meet">

<g transform="translate(0.000000,60.000000) scale(0.100000,-0.100000)"
fill="#73d0d5" stroke="none">
<path d="M320 499 c-49 -10 -70 -41 -70 -100 0 -48 -1 -49 -30 -49 -28 0 -30
-3 -30 -35 0 -32 2 -35 30 -35 l30 0 0 -105 0 -105 35 0 35 0 0 105 0 105 35
0 c33 0 35 2 35 35 0 33 -2 35 -35 35 -35 0 -35 0 -35 45 0 45 0 45 35 45 32
0 35 3 35 29 0 33 -18 41 -70 30z"/>
</g>
</svg>
