<svg id="Isolation_Mode" data-name="Isolation Mode" xmlns="http://www.w3.org/2000/svg" viewBox="0 0 122 122"><defs><style>.cls-1{fill:#73d1db;}</style></defs><title>fruit</title><path class="cls-1" d="M39.8,112.7h0c-11.1,0-26.4-9.4-35.7-30.2-5-11.3-5.4-23-1.2-32.2C6.5,42.5,13,37.1,21.8,34.5A33.15,33.15,0,0,1,31,33.1a27.64,27.64,0,0,1,14.8,4.2h.6l.3.6a2.93,2.93,0,0,0,1.6.4h1.9v72.1H48.3a.37.37,0,0,0-.3.1c-.1,0-.1.1-.2.1a14.34,14.34,0,0,1-3.4,1.4A13.08,13.08,0,0,1,39.8,112.7ZM31,37a28.91,28.91,0,0,0-8.1,1.2c-7.7,2.3-13.4,7-16.4,13.6C2.7,60,3.1,70.6,7.7,80.8c8.5,19.2,22.6,27.9,32.1,27.9h0a14.38,14.38,0,0,0,3.7-.5,14.45,14.45,0,0,0,2.6-1.1l.2-.1c.1,0,.1-.1.2-.1v-65a8.65,8.65,0,0,1-1.7-.7l-.1-.1c-.1,0-.1-.1-.2-.1l-.2-.1h0l-.5-.3A24,24,0,0,0,31,37Z"/><path class="cls-1" d="M16,71.9c-1.7-5.8-1.5-11.3.4-15.5,1.8-3.8,4.9-6.3,9.6-7.7l1.1,3.7c-3.6,1.1-5.8,2.8-7.1,5.6-1.5,3.3-1.6,7.9-.2,12.7Z"/><path class="cls-1" d="M64.9,85.2a3,3,0,1,1-3-3A3,3,0,0,1,64.9,85.2Z"/><path class="cls-1" d="M70.5,72.9a3,3,0,1,1-3-3A3,3,0,0,1,70.5,72.9Z"/><path class="cls-1" d="M64.9,60.6a3,3,0,1,1-3-3A3,3,0,0,1,64.9,60.6Z"/><path class="cls-1" d="M57.1,112.7a15.07,15.07,0,0,1-4.8-.7,12.63,12.63,0,0,1-3.4-1.5.1.1,0,0,1-.1-.1c-.1,0-.2-.1-.3-.1H46.6V38.4h1.9a2.93,2.93,0,0,0,1.6-.4l.3-.6H51a27.64,27.64,0,0,1,14.8-4.2A33.15,33.15,0,0,1,75,34.6c8.8,2.6,15.3,8,18.9,15.7,4.3,9.2,3.8,20.9-1.2,32.2C83.5,103.3,68.1,112.7,57.1,112.7ZM50.4,107c.1,0,.1.1.2.1l.2.1a11.2,11.2,0,0,0,2.6,1.1,14.38,14.38,0,0,0,3.7.5c9.5,0,23.6-8.7,32.1-27.9,4.5-10.2,5-20.8,1.2-29C87.3,45.2,81.6,40.5,74,38.3a29.45,29.45,0,0,0-8.1-1.2,24,24,0,0,0-12.8,3.6h0l-.5.3h0l-.1.1c-.1.1-.2.1-.2.2h-.2a5.09,5.09,0,0,1-1.7.7Z"/><path class="cls-1" d="M50.4,40.3H46.5V31.9a9.15,9.15,0,0,0-2.7-6.5,9.33,9.33,0,0,0-6.5-2.7V18.8a13.43,13.43,0,0,1,9.3,3.8,13,13,0,0,1,3.8,9.3Z"/><path class="cls-1" d="M51.9,31.1h0a17.4,17.4,0,0,1-4.5-.6l-1.1-.3L46,29.1A17.37,17.37,0,0,1,62.7,7.3a17.4,17.4,0,0,1,4.5.6l1.1.3.3,1.1A17.16,17.16,0,0,1,64.1,26,17.1,17.1,0,0,1,51.9,31.1ZM49.5,27a19.42,19.42,0,0,0,2.4.2h0a13.56,13.56,0,0,0,9.5-3.9,13.26,13.26,0,0,0,3.7-11.8,19.42,19.42,0,0,0-2.4-.2A13.34,13.34,0,0,0,49.5,27Z"/></svg>