<svg id="Capa_1" data-name="Capa 1" xmlns="http://www.w3.org/2000/svg" viewBox="0 0 122 122"><defs><style>.cls-1{fill:#73d1db;}</style></defs><title>gym</title><path class="cls-1" d="M109.25,31.78h-3.83V22.2a5.77,5.77,0,0,0-5.75-5.75H92a5.77,5.77,0,0,0-5.75,5.75V37.53h-4.5l-.43-1.08a13.32,13.32,0,0,0-12.48-8.51h-.19a5.7,5.7,0,0,0-9.22-2.35,5.69,5.69,0,0,0-7.67,0,5.69,5.69,0,0,0-7.67,0,5.73,5.73,0,0,0-9.58,4.26v7.67H28.75V22.2A5.77,5.77,0,0,0,23,16.45H15.33A5.77,5.77,0,0,0,9.58,22.2v9.58H5.75A5.77,5.77,0,0,0,0,37.53V56.7a5.77,5.77,0,0,0,5.75,5.75H9.58V72a5.77,5.77,0,0,0,5.75,5.75H23A5.77,5.77,0,0,0,28.75,72V56.7h4.34l1.49,4.72a2,2,0,0,0,.31.6L40,68.63l-3.28,34.43a4.89,4.89,0,0,0,4.89,5.37h26a5,5,0,0,0,3.64-1.61A4.87,4.87,0,0,0,72.47,103L69.12,69.54a1.06,1.06,0,0,1,.36-.93L80,59.6a7.1,7.1,0,0,0,2-2.92h4.29V72A5.77,5.77,0,0,0,92,77.76h7.67A5.77,5.77,0,0,0,105.42,72V62.43h3.83A5.77,5.77,0,0,0,115,56.68V37.53A5.77,5.77,0,0,0,109.25,31.78ZM9.58,58.62H5.75A1.92,1.92,0,0,1,3.83,56.7V37.53a1.92,1.92,0,0,1,1.92-1.92H9.58ZM24.92,39.45V72A1.92,1.92,0,0,1,23,73.95H15.33A1.92,1.92,0,0,1,13.42,72V22.2a1.92,1.92,0,0,1,1.92-1.92H23a1.92,1.92,0,0,1,1.92,1.92Zm36.42-9.58a1.92,1.92,0,0,1,3.83,0V41.15a2.27,2.27,0,0,1-.86,1.77,1,1,0,0,1-.17.12,1.39,1.39,0,0,1-.34.12,1,1,0,0,1-.38.07,2.9,2.9,0,0,1-.46,0,1.68,1.68,0,0,1-.34-.07,1.94,1.94,0,0,1-.43-.24,1.45,1.45,0,0,1-.24-.17,1.9,1.9,0,0,1-.34-.43.84.84,0,0,1-.12-.19,2.1,2.1,0,0,1-.17-.77V29.87Zm-7.67,0a1.92,1.92,0,0,1,3.83,0v11.5a1.92,1.92,0,1,1-3.83,0Zm-7.67,0a1.92,1.92,0,0,1,3.83,0v11.5a1.92,1.92,0,1,1-3.83,0Zm-7.67,9.58V29.87a1.92,1.92,0,0,1,3.83,0v11.5a2.1,2.1,0,0,1-.17.77c0,.07-.1.12-.12.19a1.9,1.9,0,0,1-.34.43,1.45,1.45,0,0,1-.24.17,3.88,3.88,0,0,1-.43.24l-.31.07a1.46,1.46,0,0,1-.46,0,2.16,2.16,0,0,1-.38-.07l-.34-.12a.73.73,0,0,1-.17-.12,2.22,2.22,0,0,1-.89-1.77V39.45ZM28.75,52.87V41.37H34.5a5.76,5.76,0,0,0,2.83,4.94,2,2,0,0,0,.31.17,3.53,3.53,0,0,0,.53.24,4.73,4.73,0,0,0,.62.19c.12,0,.24.07.38.1l.12,0c.14,0,.26,0,.41,0a4.28,4.28,0,0,0,.55,0s.1,0,.17,0a4.3,4.3,0,0,0,.53,0,3,3,0,0,0,.67-.12l.48-.14a4.8,4.8,0,0,0,.62-.24l.46-.24a4.51,4.51,0,0,0,.55-.38c.07-.07.17-.1.24-.17s.07-.07.12-.1l.36.26a3.43,3.43,0,0,0,.36.26c.19.12.38.22.57.31a1.91,1.91,0,0,0,.38.19,5.89,5.89,0,0,0,.69.22l.36.1a5.35,5.35,0,0,0,2.25,0l.36-.1c.24-.07.46-.12.69-.22a1.91,1.91,0,0,0,.38-.19,4.1,4.1,0,0,0,.55-.31,3.43,3.43,0,0,0,.36-.26l.36-.26.36.26a3.43,3.43,0,0,0,.36.26,4.1,4.1,0,0,0,.55.31,2.86,2.86,0,0,0,.38.19,5.89,5.89,0,0,0,.69.22l.36.1a5.35,5.35,0,0,0,2.25,0l.36-.1a5.89,5.89,0,0,0,.69-.22,1.91,1.91,0,0,0,.38-.19c.19-.1.38-.19.57-.31a3.43,3.43,0,0,0,.36-.26l.36-.26s.07.07.12.1.17.1.24.17a4.51,4.51,0,0,0,.55.38,2.73,2.73,0,0,0,.46.24c.22.1.43.19.65.26l.46.14c.24,0,.48.1.72.12a3.25,3.25,0,0,0,.48,0l.17,0c.19,0,.38,0,.55,0a2.06,2.06,0,0,0,.38,0l.12,0,.26-.07a4.1,4.1,0,0,0,.72-.22,2.42,2.42,0,0,0,.36-.17l.38-.22a5.78,5.78,0,0,0,2.8-3.76,1.64,1.64,0,0,1,.14.69v6.88l-2.73,2.71Zm49.83,1.58a3,3,0,0,1-1.05,2.28L67,65.73a5,5,0,0,0-1.7,4.22l3.35,33.49a1.09,1.09,0,0,1-.26.84,1.11,1.11,0,0,1-.79.36h-26a1,1,0,0,1-.79-.36,1.15,1.15,0,0,1-.29-.84l3.35-35.19a2,2,0,0,0-.38-1.37l-5.37-6.95-1-3.23H66.29A3.85,3.85,0,0,0,69,55.57l2.71-2.71a3.81,3.81,0,0,0,1.13-2.71V43.28A5.73,5.73,0,0,0,69,37.89V31.78a9.53,9.53,0,0,1,8.74,6.09l.72,1.82a1.09,1.09,0,0,1,.12.48Zm7.67-1.58H82.42V41.37h3.83ZM101.58,33.7V72a1.92,1.92,0,0,1-1.92,1.92H92A1.92,1.92,0,0,1,90.08,72V22.2A1.92,1.92,0,0,1,92,20.28h7.67a1.92,1.92,0,0,1,1.92,1.92Zm9.58,23a1.92,1.92,0,0,1-1.92,1.92h-3.83v-23h3.83a1.92,1.92,0,0,1,1.92,1.92Z"/></svg>