<svg id="Isolation_Mode" data-name="Isolation Mode" xmlns="http://www.w3.org/2000/svg" viewBox="0 0 122 122"><defs><style>.cls-1{fill:#73d1db;}</style></defs><title>heart</title><path class="cls-1" d="M58.3,101.4,26.8,69.9A23.33,23.33,0,0,1,43.3,30.1a23.55,23.55,0,0,1,15.1,5.5,23,23,0,0,1,15.1-5.5A23.32,23.32,0,0,1,96.8,53.4,22.82,22.82,0,0,1,90,69.8ZM43.2,34A19.42,19.42,0,0,0,23.8,53.4a19,19,0,0,0,5.7,13.7L58.3,95.9,87.1,67.1a19.13,19.13,0,0,0,5.7-13.7A19.42,19.42,0,0,0,73.4,34a19.13,19.13,0,0,0-13.7,5.7l-1.4,1.4-1.4-1.4A19,19,0,0,0,43.2,34Z"/><path class="cls-1" d="M30.8,53.4H26.9A16.3,16.3,0,0,1,43.2,37.1V41A12.46,12.46,0,0,0,30.8,53.4Z"/><rect class="cls-1" x="56.4" y="2.7" width="3.9" height="9.3"/><rect class="cls-1" x="35.8" y="6.81" width="3.9" height="9.3" transform="translate(-1.51 15.32) rotate(-22.5)"/><rect class="cls-1" x="18.39" y="18.42" width="3.9" height="9.3" transform="translate(-10.36 21.14) rotate(-44.99)"/><rect class="cls-1" x="6.78" y="35.81" width="3.9" height="9.3" transform="translate(-31.99 33.04) rotate(-67.5)"/><rect class="cls-1" y="59.1" width="9.3" height="3.9"/><rect class="cls-1" x="4.11" y="79.6" width="9.3" height="3.9" transform="translate(-30.56 9.57) rotate(-22.51)"/><rect class="cls-1" x="15.73" y="97.01" width="9.3" height="3.9" transform="translate(-64 43.39) rotate(-45)"/><rect class="cls-1" x="33.12" y="108.61" width="9.3" height="3.9" transform="translate(-78.83 103.13) rotate(-67.49)"/><rect class="cls-1" x="56.4" y="110" width="3.9" height="9.3"/><rect class="cls-1" x="76.9" y="105.89" width="3.9" height="9.3" transform="translate(-36.29 38.57) rotate(-22.49)"/><rect class="cls-1" x="94.31" y="94.27" width="3.9" height="9.3" transform="translate(-41.75 97.04) rotate(-45)"/><rect class="cls-1" x="105.93" y="76.87" width="3.9" height="9.3" transform="translate(-8.7 150.02) rotate(-67.51)"/><rect class="cls-1" x="107.3" y="59.1" width="9.3" height="3.9"/><rect class="cls-1" x="103.19" y="38.49" width="9.3" height="3.9" transform="translate(-7.27 44.37) rotate(-22.51)"/><rect class="cls-1" x="91.57" y="21.08" width="9.3" height="3.9" transform="translate(11.9 74.79) rotate(-45)"/><rect class="cls-1" x="74.18" y="9.47" width="9.3" height="3.9" transform="translate(38.14 79.89) rotate(-67.52)"/></svg>