<svg id="Слой_1" data-name="Слой 1" xmlns="http://www.w3.org/2000/svg" viewBox="0 0 122 122"><title>history-01</title><polygon points="48.93 11.48 48.93 15.36 83.05 15.36 83.05 115.11 4.89 115.11 4.89 15.36 39 15.36 39 11.48 1 11.48 1 119 86.93 119 86.93 11.48 48.93 11.48" style="fill:#73d1db"/><polygon points="80.02 112.09 7.91 112.09 7.91 18.39 30.8 18.39 30.8 22.27 11.79 22.27 11.79 108.2 76.14 108.2 76.14 22.27 57.14 22.27 57.14 18.39 80.02 18.39 80.02 112.09" style="fill:#73d1db"/><path d="M30.8,25.3H57.14V15.37h-8.2V13.42a5,5,0,1,0-9.93,0v1.94H30.8ZM61,29.19H26.91V11.48h8.42a8.85,8.85,0,0,1,17.27,0H61Z" style="fill:#73d1db"/><path d="M42,13.42a1.94,1.94,0,1,0,0-.06s0,0,0,.06" style="fill:#73d1db"/><path d="M20.43,99.57H67.5V92.79H20.43Zm51,3.89H16.55V88.9H71.39Z" style="fill:#73d1db"/><path d="M20.43,88.9H67.5V82.13H20.43Zm51,3.89H16.55V78.24H71.39Z" style="fill:#73d1db"/><path d="M20.43,78.24H67.5V71.46H20.43Zm51,3.89H16.55V67.58H71.39Z" style="fill:#73d1db"/><path d="M20.43,67.58H67.5V60.8H20.43Zm51,3.89H16.55V56.91H71.39Z" style="fill:#73d1db"/><rect x="31.23" y="56.91" width="3.89" height="46.54" style="fill:#73d1db"/><rect x="20.86" y="36.57" width="3.89" height="12.95" style="fill:#73d1db"/><rect x="16.33" y="41.1" width="12.95" height="3.89" style="fill:#73d1db"/><rect x="33.17" y="36.79" width="38.43" height="3.89" style="fill:#73d1db"/><rect x="33.17" y="45.42" width="20.36" height="3.89" style="fill:#73d1db"/></svg>