<?xml version="1.0" standalone="no"?>
<!DOCTYPE svg PUBLIC "-//W3C//DTD SVG 20010904//EN"
 "http://www.w3.org/TR/2001/REC-SVG-20010904/DTD/svg10.dtd">
<svg version="1.0" xmlns="http://www.w3.org/2000/svg"
 width="60.000000pt" height="60.000000pt" viewBox="0 0 60.000000 60.000000"
 preserveAspectRatio="xMidYMid meet">

<g transform="translate(0.000000,60.000000) scale(0.100000,-0.100000)"
fill="#73d0d5" stroke="none">
<path d="M164 466 c-10 -26 4 -48 28 -44 33 4 33 52 0 56 -13 2 -25 -3 -28
-12z"/>
<path d="M344 358 c-23 -18 -27 -19 -21 -5 5 14 1 17 -23 17 l-30 0 0 -100 0
-100 30 0 30 0 0 61 c0 72 12 99 45 99 33 0 45 -27 45 -99 0 -60 1 -61 28 -61
l27 0 -5 91 c-4 75 -8 93 -24 105 -29 20 -69 17 -102 -8z"/>
<path d="M160 270 l0 -100 30 0 30 0 0 100 0 100 -30 0 -30 0 0 -100z"/>
</g>
</svg>
