<svg id="Layer_1" data-name="Layer 1" xmlns="http://www.w3.org/2000/svg" viewBox="0 0 700 93.4"><defs><style>.cls-1{fill:#2663a1;}</style></defs><title>logo</title><path class="cls-1" d="M115.28,27.49a32.22,32.22,0,0,0-23.37,9.78Q82,47,82,60.1t9.94,22.84a32.77,32.77,0,0,0,46.7,0q9.9-9.78,9.9-22.84t-9.9-22.83A32.11,32.11,0,0,0,115.28,27.49Zm10.81,44.46a14.61,14.61,0,0,1-21.62,0,16.44,16.44,0,0,1-4.56-11.81,16.55,16.55,0,0,1,4.56-11.84,14.55,14.55,0,0,1,21.62,0,16.55,16.55,0,0,1,4.56,11.84A16.44,16.44,0,0,1,126.09,71.94Z"/><path class="cls-1" d="M186.23,42.86a15.61,15.61,0,0,1,8.09,2.28,20.13,20.13,0,0,1,5,3.72A19,19,0,0,1,201,51.17L211.84,40.3,210.91,39a20.9,20.9,0,0,0-3.19-3.25,48.7,48.7,0,0,0-5-3.71,28.22,28.22,0,0,0-7.21-3.19,31.61,31.61,0,0,0-9.28-1.34,33.08,33.08,0,0,0-23.87,9.78Q152.3,47,152.3,60.1t10.06,22.84a33.09,33.09,0,0,0,23.87,9.78,30.34,30.34,0,0,0,9.28-1.4,34.44,34.44,0,0,0,7.15-3.06,32.93,32.93,0,0,0,5.12-3.81,25.68,25.68,0,0,0,3-3.06q.65-.91,1-1.41L201.6,69.1l-1.69,2.12a19.32,19.32,0,0,1-5.59,4.12,16.88,16.88,0,0,1-8.09,2.06,15.79,15.79,0,0,1-11.69-5.06,17.62,17.62,0,0,1,0-24.43A15.74,15.74,0,0,1,186.23,42.86Z"/><path class="cls-1" d="M280.36,27.49A32.22,32.22,0,0,0,257,37.27Q247.06,47,247.06,60.1T257,82.94a32.77,32.77,0,0,0,46.7,0q9.9-9.78,9.9-22.84t-9.9-22.83A32.11,32.11,0,0,0,280.36,27.49Zm10.81,44.46a14.61,14.61,0,0,1-21.62,0A16.44,16.44,0,0,1,265,60.14a16.55,16.55,0,0,1,4.56-11.84,14.55,14.55,0,0,1,21.62,0,16.55,16.55,0,0,1,4.56,11.84A16.44,16.44,0,0,1,291.17,71.94Z"/><path class="cls-1" d="M432.51,42.42q-6.53-2.5-13-4.38a46.62,46.62,0,0,1-11-4.59Q404,30.74,404,26.24a8.61,8.61,0,0,1,3.34-6.81,13.28,13.28,0,0,1,8.84-2.81A19.87,19.87,0,0,1,425,18.74a25.54,25.54,0,0,1,5.65,3.41c.9.85,1.59,1.57,2.09,2.15l11.5-12.18-1.12-1.25a18.84,18.84,0,0,0-3.53-3.09,47.89,47.89,0,0,0-5.75-3.5,38.4,38.4,0,0,0-8.4-3A43.56,43.56,0,0,0,414.86,0q-13.93,0-22.65,7.68T383.5,26.24q0,8.81,4.56,14.56a25.78,25.78,0,0,0,11,8.25q6.47,2.5,13,4.34A44.78,44.78,0,0,1,423.14,58q4.53,2.75,4.53,7.25a10.27,10.27,0,0,1-3.9,8.25q-3.91,3.25-10.84,3.25A25.91,25.91,0,0,1,401.43,74q-5.5-2.69-7.09-4.28t-2.47-2.59l-11.56,11.5,1.44,1.56a26.29,26.29,0,0,0,4.12,3.69,57.56,57.56,0,0,0,6.65,4.31,41,41,0,0,0,9.62,3.66,47.59,47.59,0,0,0,12.09,1.53q15.87,0,24.9-7.87a25.7,25.7,0,0,0,9-20.31q0-8.81-4.56-14.56A25.68,25.68,0,0,0,432.51,42.42Z"/><path class="cls-1" d="M526.11,27.49a25,25,0,0,0-7.59,1.16,24.27,24.27,0,0,0-5.9,2.62,30.76,30.76,0,0,0-4.22,3.31,26.09,26.09,0,0,0-2.56,2.62c-.4.52-.68.9-.84,1.16l-.5-1.12a10.91,10.91,0,0,0-1.91-2.78,25.53,25.53,0,0,0-3.35-3.12,18.1,18.1,0,0,0-5.19-2.69,20.53,20.53,0,0,0-6.93-1.16A17.85,17.85,0,0,0,478,30a25.55,25.55,0,0,0-5.59,4,19.32,19.32,0,0,0-1.94,2.47V28.74H453.2V91.47h17.24V58.86q0-6.93,3.28-10.84A10.36,10.36,0,0,1,482,44.11a9.23,9.23,0,0,1,7.34,3.41q2.91,3.41,2.91,9.4V91.47h17.24V58.86q0-6.93,3.25-10.84A10.27,10.27,0,0,1,521,44.11a9.21,9.21,0,0,1,7.37,3.41q2.88,3.41,2.88,9.4V91.47h17.31V55q0-13.56-6-20.52T526.11,27.49Z"/><path class="cls-1" d="M602.25,36.42l-1.93-2.31a22.16,22.16,0,0,0-6.59-4.38,22.78,22.78,0,0,0-10-2.25q-12.18,0-21.15,9.46a32.4,32.4,0,0,0-9,23.15,32.4,32.4,0,0,0,9,23.15q9,9.46,21.15,9.46a23.36,23.36,0,0,0,6.62-.94,22,22,0,0,0,5.19-2.15,26.08,26.08,0,0,0,3.72-2.75q1.72-1.53,2.25-2.12a9.36,9.36,0,0,0,.78-1v7.68h17.25V28.74H602.25Zm-4.5,36.11a14.57,14.57,0,0,1-21.74,0,17.62,17.62,0,0,1-4.5-12.44A17.49,17.49,0,0,1,576,47.7a14.63,14.63,0,0,1,21.74,0,17.5,17.5,0,0,1,4.5,12.4A17.64,17.64,0,0,1,597.75,72.54Z"/><path class="cls-1" d="M651.54,31.05a29.29,29.29,0,0,0-8.15,5.37V28.74H626.14V91.47h17.25V61.42q0-8.06,4-12.37c2.64-2.88,6.24-3.7,10.78-3.7h5.75V28.74h-2.56A21.7,21.7,0,0,0,651.54,31.05Z"/><path class="cls-1" d="M344,31.05a29.3,29.3,0,0,0-8.15,5.37V28.74H318.64V91.47h17.25V61.42q0-8.06,4-12.37c2.64-2.88,6.24-3.7,10.78-3.7h5.75V28.74h-2.56A21.7,21.7,0,0,0,344,31.05Z"/><path class="cls-1" d="M699.25,76.12a12.07,12.07,0,0,1-2.4.72,15.39,15.39,0,0,1-3.28.34,7.6,7.6,0,0,1-5.47-2.06,6.67,6.67,0,0,1-2.15-5v-25h12.75V28.52H685.94V10H668.63V70.75q0,21.75,19.8,21.74A31.7,31.7,0,0,0,700,90.62V75.88Z"/><path class="cls-1" d="M243.71,76.84a15.39,15.39,0,0,1-3.28.34A7.6,7.6,0,0,1,235,75.13a6.67,6.67,0,0,1-2.15-5v-25h12.75V28.52H232.81V10H215.5V70.75q0,21.75,19.8,21.74a31.7,31.7,0,0,0,11.56-1.87V75.88l-.75.25A12.06,12.06,0,0,1,243.71,76.84Z"/><path class="cls-1" d="M34.58,1.86v0H0V91.47H34.58a44.8,44.8,0,1,0,0-89.61Zm0,71.68v0H18V19.8H34.58a26.87,26.87,0,1,1,0,53.74Z"/></svg>