<svg id="Слой_1" data-name="Слой 1" xmlns="http://www.w3.org/2000/svg" xmlns:xlink="http://www.w3.org/1999/xlink" viewBox="0 0 122 122"><defs><style>.cls-1{fill:none;}.cls-2{clip-path:url(#clip-path);}.cls-3{fill:#73d1db;}</style><clipPath id="clip-path"><rect class="cls-1" y="7.6" width="116.2" height="106.8"/></clipPath></defs><title>money</title><g class="cls-2"><path class="cls-3" d="M71.1,110.5h9.1l6.4-13.2.5-.3c10.4-6.8,16.3-16.8,16.3-27.4C103.4,50,83.2,34,58.4,34a57.32,57.32,0,0,0-13.8,1.7l-1.1.3-.8-.8a20.1,20.1,0,0,0-12.5-6.1V41.8l-.9.6a48.23,48.23,0,0,0-8.8,7.9A24.25,24.25,0,0,1,3.9,58.2V68.4A58,58,0,0,0,32.3,99.1l1.1.5v10.9h9.1l4.5-6.4,1.2.2c1.7.3,3.5.5,5.4.7h.3c.6,0,1.2.1,1.8.1h2.7a53.33,53.33,0,0,0,9.8-.9l2-.3Zm11.5,3.9H67.7l-.9-5.9q-3.3.45-6.6.6H55.3c-.6,0-1.3-.1-1.9-.1h-.3c-1.6-.1-3.1-.3-4.5-.5l-4.2,6.1h-15V102.1A62.28,62.28,0,0,1,.1,69.5L0,69.2V54.4H1.9a20.37,20.37,0,0,0,15.6-6.7,56.14,56.14,0,0,1,8.6-7.9V25.1H28a23.22,23.22,0,0,1,16.4,6.6,61.87,61.87,0,0,1,13.7-1.6c27,0,48.9,17.7,48.9,39.5,0,11.8-6.4,22.8-17.6,30.4Z"/></g><g class="cls-2"><path class="cls-3" d="M105.3,71.5V67.6a7,7,0,0,0,7-7h3.9a10.93,10.93,0,0,1-10.9,10.9"/></g><g class="cls-2"><path class="cls-3" d="M29.5,62.7a6.44,6.44,0,0,1-6.4-6.4H27a2.5,2.5,0,0,0,5,0h3.9a6.38,6.38,0,0,1-6.4,6.4"/></g><g class="cls-2"><path class="cls-3" d="M58.3,11.5a5.4,5.4,0,1,0,5.4,5.4,5.38,5.38,0,0,0-5.4-5.4m0,14.7a9.3,9.3,0,1,1,9.3-9.3,9.35,9.35,0,0,1-9.3,9.3"/></g></svg>