<svg id="Isolation_Mode" data-name="Isolation Mode" xmlns="http://www.w3.org/2000/svg" viewBox="0 0 122 122"><defs><style>.cls-1{fill:#73d1db;}</style></defs><title>psico</title><path class="cls-1" d="M39.4,121.5,36,99.1l-22.4,2.7L11.5,76H0L9.8,47.5V41h.1A42.37,42.37,0,1,1,92.3,56.6l-8,23.1,5.2,27Zm-.2-26.7,3.3,21.8,42.6-12.5L80.3,79.5l8.3-24.1a37.71,37.71,0,0,0,2.1-12.5,38.5,38.5,0,0,0-77,0v5.2l-8.2,24h9.6l2,25.4Z"/><path class="cls-1" d="M52.2,68.6A25.7,25.7,0,1,1,77.9,42.9,25.69,25.69,0,0,1,52.2,68.6Zm0-47.5A21.8,21.8,0,1,0,74,42.9,21.85,21.85,0,0,0,52.2,21.1Z"/><rect class="cls-1" x="50.3" y="32.5" width="3.9" height="20.8"/><rect class="cls-1" x="41.8" y="41" width="20.8" height="3.9"/></svg>