<svg id="Слой_1" data-name="Слой 1" xmlns="http://www.w3.org/2000/svg" viewBox="0 0 122 122"><defs><style>.cls-1{fill:#73d1db;}</style></defs><title>quality</title><polygon class="cls-1" points="74.7 86.55 82.5 102.95 70.3 98.65 66 110.85 58 94.05 54.5 95.75 66.5 121.05 72.7 103.65 90.1 109.75 78.2 84.95 74.7 86.55"/><polygon class="cls-1" points="4.2 109.75 21.6 103.65 27.8 121.05 39.8 95.75 36.3 94.05 28.3 110.85 24 98.65 11.8 102.95 19.6 86.55 16.1 84.95 4.2 109.75"/><path class="cls-1" d="M47.1,23.45a24.4,24.4,0,1,0,24.4,24.4,24.37,24.37,0,0,0-24.4-24.4m0,52.6a28.3,28.3,0,1,1,28.3-28.3A28.34,28.34,0,0,1,47.1,76"/><path class="cls-1" d="M47.1,54.15l5.8,3.1-1.1-6.5,4.7-4.6-6.5-.9-2.9-5.9-2.9,5.9-6.5.9,4.7,4.6-1.1,6.5Zm-11,10.2,2.1-12.2-8.9-8.7,12.3-1.8,5.5-11.1,5.5,11.1,12.3,1.8L56,52l2.1,12.2-11-5.8Z"/><path class="cls-1" d="M55.8,6.35l5.6,8.8,10.3-1.7,1.5,10.3,10.1,2.6-2.8,10.1L88.7,43l-6.6,8,4.8,9.3L77.6,65l.7,10.4-10.4.4-3.6,9.8-9.7-3.8-7.3,7.5L40,81.75l-9.7,3.8-3.6-9.8L16,75.35,16.7,65l-9.4-4.7L12.1,51,5.5,43l8.2-6.5-2.8-10.1L21,23.75l1.5-10.3,10.3,1.7,5.6-8.8,8.7,5.8ZM57,1l-9.8,6.6L37.3,1,31,11,19.3,9l-1.7,11.7-11.5,3L9.3,35,0,42.35l7.5,9.1L2.1,62l10.6,5.3L12,79.05l11.8.5,4.1,11.1,11-4.4,8.3,8.5,8.3-8.5,11,4.4,4.1-11.1,11.8-.5-.7-11.8L92.2,62l-5.5-10.5,7.5-9.1L85,35l3.2-11.4-11.5-2.9L75,9,63.3,11Z"/></svg>