<svg id="Isolation_Mode" data-name="Isolation Mode" xmlns="http://www.w3.org/2000/svg" viewBox="0 0 122 122"><defs><style>.cls-1{fill:#73d1db;}</style></defs><title>shield</title><path class="cls-1" d="M46.8,119.15l-.6-.2A68.87,68.87,0,0,1,0,53.95V26.25H1.9A21.42,21.42,0,0,0,23.3,4.85v-2H70.2v1.9a21.42,21.42,0,0,0,21.4,21.4h1.9v27.7a68.87,68.87,0,0,1-46.2,65ZM3.9,30v23.9a65,65,0,0,0,43,61.1,65,65,0,0,0,43-61.1V30A25.4,25.4,0,0,1,66.5,6.75H27.2A25.39,25.39,0,0,1,3.9,30Z"/><path class="cls-1" d="M46.8,110.85l-.7-.3A60.58,60.58,0,0,1,7.8,53.95V33.45L9.3,33a29.2,29.2,0,0,0,21-21l.4-1.5H63.2l.4,1.5a29.37,29.37,0,0,0,21,21l1.5.4v20.5a60.73,60.73,0,0,1-38.3,56.6ZM11.7,36.45v17.5a56.84,56.84,0,0,0,35.2,52.7A56.9,56.9,0,0,0,82,53.95V36.45a32.91,32.91,0,0,1-21.9-21.9H33.6A33.31,33.31,0,0,1,11.7,36.45Z"/><polygon class="cls-1" points="44.5 66.85 35.8 58.15 38.5 55.45 44.5 61.35 55.2 50.65 57.9 53.45 44.5 66.85"/><path class="cls-1" d="M46.8,78.15a20.1,20.1,0,1,1,20.1-20.1A20.1,20.1,0,0,1,46.8,78.15Zm0-36.3A16.2,16.2,0,1,0,63,58,16.26,16.26,0,0,0,46.8,41.85Z"/></svg>