<svg id="Слой_1" data-name="Слой 1" xmlns="http://www.w3.org/2000/svg" xmlns:xlink="http://www.w3.org/1999/xlink" viewBox="0 0 122 122"><defs><style>.cls-1{fill:none;}.cls-2{clip-path:url(#clip-path);}.cls-3{fill:#73d1db;}</style><clipPath id="clip-path"><rect class="cls-1" y="1.2" width="98.9" height="119.6"/></clipPath></defs><title>speed</title><g class="cls-2"><path class="cls-3" d="M49.4,90.6a19.2,19.2,0,0,1,0-38.4v3.9A15.3,15.3,0,1,0,64.7,71.4h3.9A19.14,19.14,0,0,1,49.4,90.6"/></g><g class="cls-2"><path class="cls-3" d="M77,35.1a45.7,45.7,0,0,0-55,0L19.7,32A48.93,48.93,0,0,1,49.6,22,49.57,49.57,0,0,1,79.5,32Z"/></g><g class="cls-2"><path class="cls-3" d="M49.4,120.8A49.48,49.48,0,0,1,10,41.5l3.1,2.4A45,45,0,0,0,3.8,71.4a45.6,45.6,0,0,0,91.2,0,44.75,44.75,0,0,0-9.3-27.5l3.1-2.4a49.48,49.48,0,0,1-39.4,79.3"/></g><g class="cls-2"><path class="cls-3" d="M49.4,34.4A36.9,36.9,0,1,0,86.3,71.3,36.94,36.94,0,0,0,49.4,34.4m0,77.8A40.8,40.8,0,1,1,90.2,71.4a40.84,40.84,0,0,1-40.8,40.8"/></g><rect class="cls-3" x="74.37" y="35.8" width="17.3" height="3.9" transform="translate(-2.37 69.76) rotate(-45)"/><rect class="cls-3" x="87.21" y="25.18" width="3.9" height="13" transform="translate(3.71 72.32) rotate(-45)"/><rect class="cls-3" x="13.88" y="29.12" width="3.9" height="17.3" transform="translate(-22.07 22.25) rotate(-45)"/><rect class="cls-3" x="3.27" y="29.67" width="13" height="3.9" transform="translate(-19.5 16.17) rotate(-45)"/><rect class="cls-3" x="47.5" y="9.2" width="3.9" height="14.7"/><g class="cls-2"><path class="cls-3" d="M39.9,5.1a4.1,4.1,0,0,0-4.1,4.1,4.1,4.1,0,0,0,4.1,4.1h19A4.1,4.1,0,0,0,63,9.2a4.1,4.1,0,0,0-4.1-4.1Zm19,12.1h-19a7.87,7.87,0,0,1-5.6-2.3A8.27,8.27,0,0,1,32,9.2a7.87,7.87,0,0,1,2.3-5.6,7.57,7.57,0,0,1,5.6-2.4h19a7.86,7.86,0,0,1,7.9,8,7.87,7.87,0,0,1-2.3,5.6,7.62,7.62,0,0,1-5.6,2.4"/></g><rect class="cls-3" x="74.37" y="35.8" width="17.3" height="3.9" transform="translate(-2.37 69.76) rotate(-45)"/><rect class="cls-3" x="13.88" y="29.12" width="3.9" height="17.3" transform="translate(-22.07 22.25) rotate(-45)"/><g class="cls-2"><path class="cls-3" d="M49.4,68.1a3.22,3.22,0,0,0-3.2,3.2,3.29,3.29,0,0,0,3.2,3.2,3.2,3.2,0,1,0,0-6.4m0,10.4a7.1,7.1,0,1,1,7.1-7.1,7,7,0,0,1-7.1,7.1"/></g><rect class="cls-3" x="54.6" y="69.4" width="18.1" height="3.9"/><rect class="cls-3" x="47.5" y="39" width="3.9" height="4.3"/><rect class="cls-3" x="56.59" y="40.73" width="4.3" height="3.9" transform="translate(-0.01 85.35) rotate(-71.99)"/><rect class="cls-3" x="65" y="45.03" width="4.3" height="3.9" transform="matrix(0.59, -0.81, 0.81, 0.59, -10.32, 73.71)"/><rect class="cls-3" x="71.71" y="51.7" width="4.3" height="3.9" transform="translate(-17.43 53.64) rotate(-35.99)"/><rect class="cls-3" x="76" y="60.1" width="4.3" height="3.9" transform="matrix(0.95, -0.31, 0.31, 0.95, -15.33, 27.14)"/><rect class="cls-3" x="77.5" y="69.4" width="4.3" height="3.9"/></svg>