<?xml version="1.0" standalone="no"?>
<!DOCTYPE svg PUBLIC "-//W3C//DTD SVG 20010904//EN"
 "http://www.w3.org/TR/2001/REC-SVG-20010904/DTD/svg10.dtd">
<svg version="1.0" xmlns="http://www.w3.org/2000/svg"
 width="60.000000pt" height="60.000000pt" viewBox="0 0 60.000000 60.000000"
 preserveAspectRatio="xMidYMid meet">

<g transform="translate(0.000000,60.000000) scale(0.100000,-0.100000)"
fill="#73d0d5" stroke="none">
<path d="M195 456 c-29 -21 -21 -80 24 -171 47 -94 95 -155 122 -155 26 0 69
29 69 46 0 8 -10 30 -22 49 -20 31 -27 34 -54 29 -29 -5 -33 -3 -53 38 -26 54
-26 60 -1 75 18 12 19 14 2 58 -14 37 -21 45 -42 45 -15 0 -35 -6 -45 -14z"/>
</g>
</svg>
