<?xml version="1.0" standalone="no"?>
<!DOCTYPE svg PUBLIC "-//W3C//DTD SVG 20010904//EN"
 "http://www.w3.org/TR/2001/REC-SVG-20010904/DTD/svg10.dtd">
<svg version="1.0" xmlns="http://www.w3.org/2000/svg"
 width="60.000000pt" height="60.000000pt" viewBox="0 0 60.000000 60.000000"
 preserveAspectRatio="xMidYMid meet">

<g transform="translate(0.000000,60.000000) scale(0.100000,-0.100000)"
fill="#73d0d5" stroke="none">
<path d="M251 365 c-90 -35 -166 -67 -169 -69 -6 -7 43 -26 72 -28 11 -1 70
27 129 61 59 35 110 61 113 59 2 -3 -36 -41 -85 -84 -71 -62 -90 -85 -91 -106
0 -14 -6 -28 -12 -31 -9 -3 -10 -8 -2 -16 7 -8 16 -5 34 14 13 14 28 25 33 25
5 0 29 -14 53 -32 27 -19 48 -28 53 -22 10 10 61 241 61 274 0 11 -6 20 -12
19 -7 0 -87 -29 -177 -64z"/>
<path d="M170 245 c0 -5 5 -17 10 -25 5 -8 10 -10 10 -5 0 6 -5 17 -10 25 -5
8 -10 11 -10 5z"/>
</g>
</svg>
